solid OpenSCAD_Model
  facet normal 0 0 -1
    outer loop
      vertex -5 0 0
      vertex -4.90393 0.975452 0
      vertex -4.90393 -0.975452 0
    endloop
  endfacet
  facet normal 0 0 -1
    outer loop
      vertex -4.90393 -0.975452 0
      vertex -4.90393 0.975452 0
      vertex -4.6194 1.91342 0
    endloop
  endfacet
  facet normal 0 0 -1
    outer loop
      vertex -4.90393 -0.975452 0
      vertex -4.6194 1.91342 0
      vertex -4.15735 2.77785 0
    endloop
  endfacet
  facet normal 0 0 -1
    outer loop
      vertex -4.90393 -0.975452 0
      vertex -4.15735 2.77785 0
      vertex -3.53553 3.53553 0
    endloop
  endfacet
  facet normal 0 0 -1
    outer loop
      vertex -4.90393 -0.975452 0
      vertex -3.53553 3.53553 0
      vertex -2.77785 4.15735 0
    endloop
  endfacet
  facet normal 0 0 -1
    outer loop
      vertex -4.90393 -0.975452 0
      vertex -2.77785 4.15735 0
      vertex -1.91342 4.6194 0
    endloop
  endfacet
  facet normal 0 0 -1
    outer loop
      vertex -4.90393 -0.975452 0
      vertex -1.91342 4.6194 0
      vertex -0.975452 4.90393 0
    endloop
  endfacet
  facet normal 0 0 -1
    outer loop
      vertex -4.90393 -0.975452 0
      vertex -0.975452 4.90393 0
      vertex 0 5 0
    endloop
  endfacet
  facet normal 0 0 -1
    outer loop
      vertex -4.90393 -0.975452 0
      vertex 0 5 0
      vertex 0.975452 4.90393 0
    endloop
  endfacet
  facet normal 0 0 -1
    outer loop
      vertex -0.536498 2.69716 0
      vertex 0.975452 4.90393 0
      vertex 1.91342 4.6194 0
    endloop
  endfacet
  facet normal 0 0 -1
    outer loop
      vertex 0.536498 2.69716 0
      vertex 1.91342 4.6194 0
      vertex 2.77785 4.15735 0
    endloop
  endfacet
  facet normal 0 0 -1
    outer loop
      vertex 1.05238 2.54067 0
      vertex 2.77785 4.15735 0
      vertex 3.53553 3.53553 0
    endloop
  endfacet
  facet normal 0 0 -1
    outer loop
      vertex 1.94454 1.94454 0
      vertex 3.53553 3.53553 0
      vertex 4.15735 2.77785 0
    endloop
  endfacet
  facet normal 0 0 -1
    outer loop
      vertex 2.28654 1.52782 0
      vertex 4.15735 2.77785 0
      vertex 4.6194 1.91342 0
    endloop
  endfacet
  facet normal 0 0 -1
    outer loop
      vertex 2.54067 1.05238 0
      vertex 4.6194 1.91342 0
      vertex 4.90393 0.975452 0
    endloop
  endfacet
  facet normal 0 0 -1
    outer loop
      vertex 2.75 0 0
      vertex 4.90393 0.975452 0
      vertex 5 0 0
    endloop
  endfacet
  facet normal 0 0 -1
    outer loop
      vertex 2.69716 -0.536498 0
      vertex 5 0 0
      vertex 4.90393 -0.975452 0
    endloop
  endfacet
  facet normal 0 0 -1
    outer loop
      vertex 2.28654 -1.52782 0
      vertex 4.90393 -0.975452 0
      vertex 4.6194 -1.91342 0
    endloop
  endfacet
  facet normal 0 0 -1
    outer loop
      vertex 1.94454 -1.94454 0
      vertex 4.6194 -1.91342 0
      vertex 4.15735 -2.77785 0
    endloop
  endfacet
  facet normal 0 0 -1
    outer loop
      vertex 1.05238 -2.54067 0
      vertex 4.15735 -2.77785 0
      vertex 3.53553 -3.53553 0
    endloop
  endfacet
  facet normal 0 0 -1
    outer loop
      vertex 0 -2.75 0
      vertex 3.53553 -3.53553 0
      vertex 2.77785 -4.15735 0
    endloop
  endfacet
  facet normal 0 0 -1
    outer loop
      vertex -4.90393 -0.975452 0
      vertex 2.77785 -4.15735 0
      vertex 1.91342 -4.6194 0
    endloop
  endfacet
  facet normal 0 0 -1
    outer loop
      vertex -4.90393 -0.975452 0
      vertex 1.91342 -4.6194 0
      vertex 0.975452 -4.90393 0
    endloop
  endfacet
  facet normal 0 0 -1
    outer loop
      vertex -4.90393 -0.975452 0
      vertex 0.975452 -4.90393 0
      vertex 0 -5 0
    endloop
  endfacet
  facet normal 0 0 -1
    outer loop
      vertex -4.90393 -0.975452 0
      vertex 0 -5 0
      vertex -0.975452 -4.90393 0
    endloop
  endfacet
  facet normal 0 0 -1
    outer loop
      vertex -4.90393 -0.975452 0
      vertex -0.975452 -4.90393 0
      vertex -1.91342 -4.6194 0
    endloop
  endfacet
  facet normal 0 0 -1
    outer loop
      vertex -4.90393 -0.975452 0
      vertex -1.91342 -4.6194 0
      vertex -2.77785 -4.15735 0
    endloop
  endfacet
  facet normal 0 0 -1
    outer loop
      vertex -4.90393 -0.975452 0
      vertex -2.77785 -4.15735 0
      vertex -3.53553 -3.53553 0
    endloop
  endfacet
  facet normal 0 0 -1
    outer loop
      vertex -4.90393 -0.975452 0
      vertex -3.53553 -3.53553 0
      vertex -4.15735 -2.77785 0
    endloop
  endfacet
  facet normal 0 0 -1
    outer loop
      vertex -4.90393 -0.975452 0
      vertex -4.15735 -2.77785 0
      vertex -4.6194 -1.91342 0
    endloop
  endfacet
  facet normal 0 0 -1
    outer loop
      vertex -2.69716 -0.536498 0
      vertex -4.90393 -0.975452 0
      vertex -2.75 0 0
    endloop
  endfacet
  facet normal 0 0 -1
    outer loop
      vertex 2.54067 1.05238 0
      vertex 4.90393 0.975452 0
      vertex 2.69716 0.536498 0
    endloop
  endfacet
  facet normal 0 0 -1
    outer loop
      vertex -2.54067 -1.05238 0
      vertex -4.90393 -0.975452 0
      vertex -2.69716 -0.536498 0
    endloop
  endfacet
  facet normal 0 0 -1
    outer loop
      vertex -2.28654 -1.52782 0
      vertex -4.90393 -0.975452 0
      vertex -2.54067 -1.05238 0
    endloop
  endfacet
  facet normal 0 0 -1
    outer loop
      vertex -1.94454 -1.94454 0
      vertex -4.90393 -0.975452 0
      vertex -2.28654 -1.52782 0
    endloop
  endfacet
  facet normal 0 0 -1
    outer loop
      vertex -0.536498 -2.69716 0
      vertex 2.77785 -4.15735 0
      vertex -1.05238 -2.54067 0
    endloop
  endfacet
  facet normal 0 0 -1
    outer loop
      vertex -4.90393 -0.975452 0
      vertex -1.94454 -1.94454 0
      vertex -1.52782 -2.28654 0
    endloop
  endfacet
  facet normal 0 0 -1
    outer loop
      vertex -4.90393 -0.975452 0
      vertex -1.52782 -2.28654 0
      vertex -1.05238 -2.54067 0
    endloop
  endfacet
  facet normal 0 0 -1
    outer loop
      vertex -4.90393 -0.975452 0
      vertex -1.05238 -2.54067 0
      vertex 2.77785 -4.15735 0
    endloop
  endfacet
  facet normal 0 0 -1
    outer loop
      vertex 0 -2.75 0
      vertex 2.77785 -4.15735 0
      vertex -0.536498 -2.69716 0
    endloop
  endfacet
  facet normal 0 0 -1
    outer loop
      vertex 0.536498 -2.69716 0
      vertex 3.53553 -3.53553 0
      vertex 0 -2.75 0
    endloop
  endfacet
  facet normal 0 0 -1
    outer loop
      vertex 1.05238 -2.54067 0
      vertex 3.53553 -3.53553 0
      vertex 0.536498 -2.69716 0
    endloop
  endfacet
  facet normal 0 0 -1
    outer loop
      vertex 1.52782 -2.28654 0
      vertex 4.15735 -2.77785 0
      vertex 1.05238 -2.54067 0
    endloop
  endfacet
  facet normal 0 0 -1
    outer loop
      vertex 1.94454 -1.94454 0
      vertex 4.15735 -2.77785 0
      vertex 1.52782 -2.28654 0
    endloop
  endfacet
  facet normal 0 0 -1
    outer loop
      vertex 2.54067 -1.05238 0
      vertex 4.90393 -0.975452 0
      vertex 2.28654 -1.52782 0
    endloop
  endfacet
  facet normal 0 0 -1
    outer loop
      vertex 2.69716 -0.536498 0
      vertex 4.90393 -0.975452 0
      vertex 2.54067 -1.05238 0
    endloop
  endfacet
  facet normal 0 0 -1
    outer loop
      vertex 2.28654 -1.52782 0
      vertex 4.6194 -1.91342 0
      vertex 1.94454 -1.94454 0
    endloop
  endfacet
  facet normal 0 0 -1
    outer loop
      vertex 2.69716 0.536498 0
      vertex 4.90393 0.975452 0
      vertex 2.75 0 0
    endloop
  endfacet
  facet normal 0 0 -1
    outer loop
      vertex 2.28654 1.52782 0
      vertex 4.6194 1.91342 0
      vertex 2.54067 1.05238 0
    endloop
  endfacet
  facet normal 0 0 -1
    outer loop
      vertex 1.52782 2.28654 0
      vertex 3.53553 3.53553 0
      vertex 1.94454 1.94454 0
    endloop
  endfacet
  facet normal 0 0 -1
    outer loop
      vertex 1.05238 2.54067 0
      vertex 3.53553 3.53553 0
      vertex 1.52782 2.28654 0
    endloop
  endfacet
  facet normal 0 0 -1
    outer loop
      vertex 1.94454 1.94454 0
      vertex 4.15735 2.77785 0
      vertex 2.28654 1.52782 0
    endloop
  endfacet
  facet normal 0 0 -1
    outer loop
      vertex 0 2.75 0
      vertex 1.91342 4.6194 0
      vertex 0.536498 2.69716 0
    endloop
  endfacet
  facet normal 0 0 -1
    outer loop
      vertex -1.05238 2.54067 0
      vertex 0.975452 4.90393 0
      vertex -0.536498 2.69716 0
    endloop
  endfacet
  facet normal 0 0 -1
    outer loop
      vertex -2.28654 1.52782 0
      vertex -4.90393 -0.975452 0
      vertex -1.94454 1.94454 0
    endloop
  endfacet
  facet normal 0 0 -1
    outer loop
      vertex -1.52782 2.28654 0
      vertex 0.975452 4.90393 0
      vertex -1.05238 2.54067 0
    endloop
  endfacet
  facet normal 0 0 -1
    outer loop
      vertex -1.94454 1.94454 0
      vertex 0.975452 4.90393 0
      vertex -1.52782 2.28654 0
    endloop
  endfacet
  facet normal 0 0 -1
    outer loop
      vertex -4.90393 -0.975452 0
      vertex 0.975452 4.90393 0
      vertex -1.94454 1.94454 0
    endloop
  endfacet
  facet normal 0 0 -1
    outer loop
      vertex -2.54067 1.05238 0
      vertex -4.90393 -0.975452 0
      vertex -2.28654 1.52782 0
    endloop
  endfacet
  facet normal 0 0 -1
    outer loop
      vertex -2.69716 0.536498 0
      vertex -4.90393 -0.975452 0
      vertex -2.54067 1.05238 0
    endloop
  endfacet
  facet normal 0 0 -1
    outer loop
      vertex -2.75 0 0
      vertex -4.90393 -0.975452 0
      vertex -2.69716 0.536498 0
    endloop
  endfacet
  facet normal 0 0 -1
    outer loop
      vertex -0.536498 2.69716 0
      vertex 1.91342 4.6194 0
      vertex 0 2.75 0
    endloop
  endfacet
  facet normal 0 0 -1
    outer loop
      vertex 0.536498 2.69716 0
      vertex 2.77785 4.15735 0
      vertex 1.05238 2.54067 0
    endloop
  endfacet
  facet normal 0 0 -1
    outer loop
      vertex 2.75 0 0
      vertex 5 0 0
      vertex 2.69716 -0.536498 0
    endloop
  endfacet
  facet normal -0.995185 0.0980175 0
    outer loop
      vertex -5 0 0
      vertex -5 0 15
      vertex -4.90393 0.975452 0
    endloop
  endfacet
  facet normal -0.995185 0.0980175 0
    outer loop
      vertex -4.90393 0.975452 0
      vertex -5 0 15
      vertex -4.90393 0.975452 15
    endloop
  endfacet
  facet normal -0.995185 -0.0980175 0
    outer loop
      vertex -5 0 0
      vertex -4.90393 -0.975452 0
      vertex -5 0 15
    endloop
  endfacet
  facet normal -0.995185 -0.0980175 0
    outer loop
      vertex -5 0 15
      vertex -4.90393 -0.975452 0
      vertex -4.90393 -0.975452 15
    endloop
  endfacet
  facet normal -0.95694 -0.290284 0
    outer loop
      vertex -4.90393 -0.975452 0
      vertex -4.6194 -1.91342 0
      vertex -4.90393 -0.975452 15
    endloop
  endfacet
  facet normal -0.95694 -0.290284 0
    outer loop
      vertex -4.90393 -0.975452 15
      vertex -4.6194 -1.91342 0
      vertex -4.6194 -1.91342 15
    endloop
  endfacet
  facet normal -0.881921 -0.471397 0
    outer loop
      vertex -4.6194 -1.91342 0
      vertex -4.15735 -2.77785 0
      vertex -4.6194 -1.91342 15
    endloop
  endfacet
  facet normal -0.881921 -0.471397 0
    outer loop
      vertex -4.6194 -1.91342 15
      vertex -4.15735 -2.77785 0
      vertex -4.15735 -2.77785 15
    endloop
  endfacet
  facet normal -0.773011 -0.634393 0
    outer loop
      vertex -4.15735 -2.77785 0
      vertex -3.53553 -3.53553 0
      vertex -4.15735 -2.77785 15
    endloop
  endfacet
  facet normal -0.773011 -0.634393 0
    outer loop
      vertex -4.15735 -2.77785 15
      vertex -3.53553 -3.53553 0
      vertex -3.53553 -3.53553 15
    endloop
  endfacet
  facet normal -0.634393 -0.773011 0
    outer loop
      vertex -3.53553 -3.53553 15
      vertex -3.53553 -3.53553 0
      vertex -2.77785 -4.15735 0
    endloop
  endfacet
  facet normal -0.634393 -0.773011 0
    outer loop
      vertex -2.77785 -4.15735 15
      vertex -3.53553 -3.53553 15
      vertex -2.77785 -4.15735 0
    endloop
  endfacet
  facet normal -0.471397 -0.881921 0
    outer loop
      vertex -2.77785 -4.15735 15
      vertex -2.77785 -4.15735 0
      vertex -1.91342 -4.6194 0
    endloop
  endfacet
  facet normal -0.471397 -0.881921 0
    outer loop
      vertex -1.91342 -4.6194 15
      vertex -2.77785 -4.15735 15
      vertex -1.91342 -4.6194 0
    endloop
  endfacet
  facet normal -0.290284 -0.95694 0
    outer loop
      vertex -1.91342 -4.6194 15
      vertex -1.91342 -4.6194 0
      vertex -0.975452 -4.90393 0
    endloop
  endfacet
  facet normal -0.290284 -0.95694 0
    outer loop
      vertex -0.975452 -4.90393 15
      vertex -1.91342 -4.6194 15
      vertex -0.975452 -4.90393 0
    endloop
  endfacet
  facet normal -0.0980175 -0.995185 0
    outer loop
      vertex -0.975452 -4.90393 15
      vertex -0.975452 -4.90393 0
      vertex 0 -5 0
    endloop
  endfacet
  facet normal -0.0980175 -0.995185 0
    outer loop
      vertex 0 -5 15
      vertex -0.975452 -4.90393 15
      vertex 0 -5 0
    endloop
  endfacet
  facet normal 0.0980175 -0.995185 0
    outer loop
      vertex 0 -5 15
      vertex 0 -5 0
      vertex 0.975452 -4.90393 0
    endloop
  endfacet
  facet normal 0.0980175 -0.995185 0
    outer loop
      vertex 0.975452 -4.90393 15
      vertex 0 -5 15
      vertex 0.975452 -4.90393 0
    endloop
  endfacet
  facet normal 0.290284 -0.95694 0
    outer loop
      vertex 0.975452 -4.90393 15
      vertex 0.975452 -4.90393 0
      vertex 1.91342 -4.6194 0
    endloop
  endfacet
  facet normal 0.290284 -0.95694 0
    outer loop
      vertex 1.91342 -4.6194 15
      vertex 0.975452 -4.90393 15
      vertex 1.91342 -4.6194 0
    endloop
  endfacet
  facet normal 0.471397 -0.881921 0
    outer loop
      vertex 1.91342 -4.6194 15
      vertex 1.91342 -4.6194 0
      vertex 2.77785 -4.15735 0
    endloop
  endfacet
  facet normal 0.471397 -0.881921 0
    outer loop
      vertex 2.77785 -4.15735 15
      vertex 1.91342 -4.6194 15
      vertex 2.77785 -4.15735 0
    endloop
  endfacet
  facet normal 0.634393 -0.773011 0
    outer loop
      vertex 2.77785 -4.15735 15
      vertex 2.77785 -4.15735 0
      vertex 3.53553 -3.53553 0
    endloop
  endfacet
  facet normal 0.634393 -0.773011 0
    outer loop
      vertex 3.53553 -3.53553 15
      vertex 2.77785 -4.15735 15
      vertex 3.53553 -3.53553 0
    endloop
  endfacet
  facet normal 0.773011 -0.634393 0
    outer loop
      vertex 3.53553 -3.53553 15
      vertex 3.53553 -3.53553 0
      vertex 4.15735 -2.77785 0
    endloop
  endfacet
  facet normal 0.773011 -0.634393 0
    outer loop
      vertex 4.15735 -2.77785 15
      vertex 3.53553 -3.53553 15
      vertex 4.15735 -2.77785 0
    endloop
  endfacet
  facet normal 0.881921 -0.471397 0
    outer loop
      vertex 4.15735 -2.77785 15
      vertex 4.15735 -2.77785 0
      vertex 4.6194 -1.91342 0
    endloop
  endfacet
  facet normal 0.881921 -0.471397 0
    outer loop
      vertex 4.6194 -1.91342 15
      vertex 4.15735 -2.77785 15
      vertex 4.6194 -1.91342 0
    endloop
  endfacet
  facet normal 0.95694 -0.290284 0
    outer loop
      vertex 4.6194 -1.91342 15
      vertex 4.6194 -1.91342 0
      vertex 4.90393 -0.975452 0
    endloop
  endfacet
  facet normal 0.95694 -0.290284 0
    outer loop
      vertex 4.90393 -0.975452 15
      vertex 4.6194 -1.91342 15
      vertex 4.90393 -0.975452 0
    endloop
  endfacet
  facet normal 0.995185 -0.0980175 0
    outer loop
      vertex 4.90393 -0.975452 15
      vertex 4.90393 -0.975452 0
      vertex 5 0 0
    endloop
  endfacet
  facet normal 0.995185 -0.0980175 0
    outer loop
      vertex 5 0 15
      vertex 4.90393 -0.975452 15
      vertex 5 0 0
    endloop
  endfacet
  facet normal 0.995185 0.0980175 0
    outer loop
      vertex 5 0 0
      vertex 4.90393 0.975452 0
      vertex 4.90393 0.975452 15
    endloop
  endfacet
  facet normal 0.995185 0.0980175 0
    outer loop
      vertex 5 0 15
      vertex 5 0 0
      vertex 4.90393 0.975452 15
    endloop
  endfacet
  facet normal 0.95694 0.290284 0
    outer loop
      vertex 4.90393 0.975452 0
      vertex 4.6194 1.91342 0
      vertex 4.6194 1.91342 15
    endloop
  endfacet
  facet normal 0.95694 0.290284 0
    outer loop
      vertex 4.90393 0.975452 15
      vertex 4.90393 0.975452 0
      vertex 4.6194 1.91342 15
    endloop
  endfacet
  facet normal 0.881921 0.471397 0
    outer loop
      vertex 4.6194 1.91342 0
      vertex 4.15735 2.77785 0
      vertex 4.15735 2.77785 15
    endloop
  endfacet
  facet normal 0.881921 0.471397 0
    outer loop
      vertex 4.6194 1.91342 15
      vertex 4.6194 1.91342 0
      vertex 4.15735 2.77785 15
    endloop
  endfacet
  facet normal 0.773011 0.634393 0
    outer loop
      vertex 4.15735 2.77785 0
      vertex 3.53553 3.53553 0
      vertex 3.53553 3.53553 15
    endloop
  endfacet
  facet normal 0.773011 0.634393 0
    outer loop
      vertex 4.15735 2.77785 15
      vertex 4.15735 2.77785 0
      vertex 3.53553 3.53553 15
    endloop
  endfacet
  facet normal 0.634393 0.773011 0
    outer loop
      vertex 2.77785 4.15735 0
      vertex 2.77785 4.15735 15
      vertex 3.53553 3.53553 0
    endloop
  endfacet
  facet normal 0.634393 0.773011 0
    outer loop
      vertex 3.53553 3.53553 0
      vertex 2.77785 4.15735 15
      vertex 3.53553 3.53553 15
    endloop
  endfacet
  facet normal 0.471397 0.881921 0
    outer loop
      vertex 1.91342 4.6194 0
      vertex 1.91342 4.6194 15
      vertex 2.77785 4.15735 0
    endloop
  endfacet
  facet normal 0.471397 0.881921 0
    outer loop
      vertex 2.77785 4.15735 0
      vertex 1.91342 4.6194 15
      vertex 2.77785 4.15735 15
    endloop
  endfacet
  facet normal 0.290284 0.95694 0
    outer loop
      vertex 0.975452 4.90393 0
      vertex 0.975452 4.90393 15
      vertex 1.91342 4.6194 0
    endloop
  endfacet
  facet normal 0.290284 0.95694 0
    outer loop
      vertex 1.91342 4.6194 0
      vertex 0.975452 4.90393 15
      vertex 1.91342 4.6194 15
    endloop
  endfacet
  facet normal 0.0980175 0.995185 0
    outer loop
      vertex 0 5 0
      vertex 0 5 15
      vertex 0.975452 4.90393 0
    endloop
  endfacet
  facet normal 0.0980175 0.995185 0
    outer loop
      vertex 0.975452 4.90393 0
      vertex 0 5 15
      vertex 0.975452 4.90393 15
    endloop
  endfacet
  facet normal -0.0980175 0.995185 0
    outer loop
      vertex -0.975452 4.90393 0
      vertex -0.975452 4.90393 15
      vertex 0 5 0
    endloop
  endfacet
  facet normal -0.0980175 0.995185 0
    outer loop
      vertex 0 5 0
      vertex -0.975452 4.90393 15
      vertex 0 5 15
    endloop
  endfacet
  facet normal -0.290284 0.95694 0
    outer loop
      vertex -1.91342 4.6194 0
      vertex -1.91342 4.6194 15
      vertex -0.975452 4.90393 0
    endloop
  endfacet
  facet normal -0.290284 0.95694 0
    outer loop
      vertex -0.975452 4.90393 0
      vertex -1.91342 4.6194 15
      vertex -0.975452 4.90393 15
    endloop
  endfacet
  facet normal -0.471397 0.881921 0
    outer loop
      vertex -2.77785 4.15735 0
      vertex -2.77785 4.15735 15
      vertex -1.91342 4.6194 0
    endloop
  endfacet
  facet normal -0.471397 0.881921 0
    outer loop
      vertex -1.91342 4.6194 0
      vertex -2.77785 4.15735 15
      vertex -1.91342 4.6194 15
    endloop
  endfacet
  facet normal -0.634393 0.773011 0
    outer loop
      vertex -3.53553 3.53553 0
      vertex -3.53553 3.53553 15
      vertex -2.77785 4.15735 0
    endloop
  endfacet
  facet normal -0.634393 0.773011 0
    outer loop
      vertex -2.77785 4.15735 0
      vertex -3.53553 3.53553 15
      vertex -2.77785 4.15735 15
    endloop
  endfacet
  facet normal -0.773011 0.634393 0
    outer loop
      vertex -4.15735 2.77785 0
      vertex -4.15735 2.77785 15
      vertex -3.53553 3.53553 0
    endloop
  endfacet
  facet normal -0.773011 0.634393 0
    outer loop
      vertex -3.53553 3.53553 0
      vertex -4.15735 2.77785 15
      vertex -3.53553 3.53553 15
    endloop
  endfacet
  facet normal -0.881921 0.471397 0
    outer loop
      vertex -4.6194 1.91342 0
      vertex -4.6194 1.91342 15
      vertex -4.15735 2.77785 0
    endloop
  endfacet
  facet normal -0.881921 0.471397 0
    outer loop
      vertex -4.15735 2.77785 0
      vertex -4.6194 1.91342 15
      vertex -4.15735 2.77785 15
    endloop
  endfacet
  facet normal -0.95694 0.290284 0
    outer loop
      vertex -4.90393 0.975452 0
      vertex -4.90393 0.975452 15
      vertex -4.6194 1.91342 0
    endloop
  endfacet
  facet normal -0.95694 0.290284 0
    outer loop
      vertex -4.6194 1.91342 0
      vertex -4.90393 0.975452 15
      vertex -4.6194 1.91342 15
    endloop
  endfacet
  facet normal 0.995185 -0.0980163 0
    outer loop
      vertex -2.69716 0.536498 0
      vertex -2.69716 0.536498 17.5
      vertex -2.75 0 17.5
    endloop
  endfacet
  facet normal 0.995185 -0.0980163 0
    outer loop
      vertex -2.75 0 0
      vertex -2.69716 0.536498 0
      vertex -2.75 0 17.5
    endloop
  endfacet
  facet normal 0.995185 0.0980163 0
    outer loop
      vertex -2.75 0 17.5
      vertex -2.69716 -0.536498 17.5
      vertex -2.69716 -0.536498 0
    endloop
  endfacet
  facet normal 0.995185 0.0980163 0
    outer loop
      vertex -2.75 0 0
      vertex -2.75 0 17.5
      vertex -2.69716 -0.536498 0
    endloop
  endfacet
  facet normal 0.95694 -0.290285 0
    outer loop
      vertex -2.54067 1.05238 0
      vertex -2.54067 1.05238 17.5
      vertex -2.69716 0.536498 17.5
    endloop
  endfacet
  facet normal 0.95694 -0.290285 0
    outer loop
      vertex -2.69716 0.536498 0
      vertex -2.54067 1.05238 0
      vertex -2.69716 0.536498 17.5
    endloop
  endfacet
  facet normal 0.881921 -0.471398 0
    outer loop
      vertex -2.28654 1.52782 0
      vertex -2.28654 1.52782 17.5
      vertex -2.54067 1.05238 17.5
    endloop
  endfacet
  facet normal 0.881921 -0.471398 0
    outer loop
      vertex -2.54067 1.05238 0
      vertex -2.28654 1.52782 0
      vertex -2.54067 1.05238 17.5
    endloop
  endfacet
  facet normal 0.773012 -0.634392 0
    outer loop
      vertex -1.94454 1.94454 0
      vertex -1.94454 1.94454 17.5
      vertex -2.28654 1.52782 17.5
    endloop
  endfacet
  facet normal 0.773012 -0.634392 0
    outer loop
      vertex -2.28654 1.52782 0
      vertex -1.94454 1.94454 0
      vertex -2.28654 1.52782 17.5
    endloop
  endfacet
  facet normal 0.634392 -0.773012 0
    outer loop
      vertex -1.52782 2.28654 0
      vertex -1.52782 2.28654 17.5
      vertex -1.94454 1.94454 17.5
    endloop
  endfacet
  facet normal 0.634392 -0.773012 0
    outer loop
      vertex -1.94454 1.94454 0
      vertex -1.52782 2.28654 0
      vertex -1.94454 1.94454 17.5
    endloop
  endfacet
  facet normal 0.471398 -0.881921 0
    outer loop
      vertex -1.05238 2.54067 0
      vertex -1.05238 2.54067 17.5
      vertex -1.52782 2.28654 17.5
    endloop
  endfacet
  facet normal 0.471398 -0.881921 0
    outer loop
      vertex -1.52782 2.28654 0
      vertex -1.05238 2.54067 0
      vertex -1.52782 2.28654 17.5
    endloop
  endfacet
  facet normal 0.290285 -0.95694 0
    outer loop
      vertex -0.536498 2.69716 0
      vertex -0.536498 2.69716 17.5
      vertex -1.05238 2.54067 17.5
    endloop
  endfacet
  facet normal 0.290285 -0.95694 0
    outer loop
      vertex -1.05238 2.54067 0
      vertex -0.536498 2.69716 0
      vertex -1.05238 2.54067 17.5
    endloop
  endfacet
  facet normal 0.0980163 -0.995185 0
    outer loop
      vertex 0 2.75 0
      vertex 0 2.75 17.5
      vertex -0.536498 2.69716 17.5
    endloop
  endfacet
  facet normal 0.0980163 -0.995185 0
    outer loop
      vertex -0.536498 2.69716 0
      vertex 0 2.75 0
      vertex -0.536498 2.69716 17.5
    endloop
  endfacet
  facet normal -0.0980163 -0.995185 0
    outer loop
      vertex 0.536498 2.69716 0
      vertex 0.536498 2.69716 17.5
      vertex 0 2.75 17.5
    endloop
  endfacet
  facet normal -0.0980163 -0.995185 0
    outer loop
      vertex 0 2.75 0
      vertex 0.536498 2.69716 0
      vertex 0 2.75 17.5
    endloop
  endfacet
  facet normal -0.290285 -0.95694 0
    outer loop
      vertex 1.05238 2.54067 0
      vertex 1.05238 2.54067 17.5
      vertex 0.536498 2.69716 17.5
    endloop
  endfacet
  facet normal -0.290285 -0.95694 0
    outer loop
      vertex 0.536498 2.69716 0
      vertex 1.05238 2.54067 0
      vertex 0.536498 2.69716 17.5
    endloop
  endfacet
  facet normal -0.471398 -0.881921 0
    outer loop
      vertex 1.52782 2.28654 0
      vertex 1.52782 2.28654 17.5
      vertex 1.05238 2.54067 17.5
    endloop
  endfacet
  facet normal -0.471398 -0.881921 0
    outer loop
      vertex 1.05238 2.54067 0
      vertex 1.52782 2.28654 0
      vertex 1.05238 2.54067 17.5
    endloop
  endfacet
  facet normal -0.634392 -0.773012 0
    outer loop
      vertex 1.94454 1.94454 0
      vertex 1.94454 1.94454 17.5
      vertex 1.52782 2.28654 17.5
    endloop
  endfacet
  facet normal -0.634392 -0.773012 0
    outer loop
      vertex 1.52782 2.28654 0
      vertex 1.94454 1.94454 0
      vertex 1.52782 2.28654 17.5
    endloop
  endfacet
  facet normal -0.773012 -0.634392 0
    outer loop
      vertex 2.28654 1.52782 17.5
      vertex 1.94454 1.94454 17.5
      vertex 2.28654 1.52782 0
    endloop
  endfacet
  facet normal -0.773012 -0.634392 0
    outer loop
      vertex 2.28654 1.52782 0
      vertex 1.94454 1.94454 17.5
      vertex 1.94454 1.94454 0
    endloop
  endfacet
  facet normal -0.881921 -0.471398 0
    outer loop
      vertex 2.54067 1.05238 17.5
      vertex 2.28654 1.52782 17.5
      vertex 2.54067 1.05238 0
    endloop
  endfacet
  facet normal -0.881921 -0.471398 0
    outer loop
      vertex 2.54067 1.05238 0
      vertex 2.28654 1.52782 17.5
      vertex 2.28654 1.52782 0
    endloop
  endfacet
  facet normal -0.95694 -0.290285 0
    outer loop
      vertex 2.69716 0.536498 17.5
      vertex 2.54067 1.05238 17.5
      vertex 2.69716 0.536498 0
    endloop
  endfacet
  facet normal -0.95694 -0.290285 0
    outer loop
      vertex 2.69716 0.536498 0
      vertex 2.54067 1.05238 17.5
      vertex 2.54067 1.05238 0
    endloop
  endfacet
  facet normal -0.995185 -0.0980163 0
    outer loop
      vertex 2.75 0 17.5
      vertex 2.69716 0.536498 17.5
      vertex 2.75 0 0
    endloop
  endfacet
  facet normal -0.995185 -0.0980163 0
    outer loop
      vertex 2.75 0 0
      vertex 2.69716 0.536498 17.5
      vertex 2.69716 0.536498 0
    endloop
  endfacet
  facet normal -0.995185 0.0980163 0
    outer loop
      vertex 2.75 0 17.5
      vertex 2.75 0 0
      vertex 2.69716 -0.536498 17.5
    endloop
  endfacet
  facet normal -0.995185 0.0980163 0
    outer loop
      vertex 2.69716 -0.536498 17.5
      vertex 2.75 0 0
      vertex 2.69716 -0.536498 0
    endloop
  endfacet
  facet normal -0.95694 0.290285 0
    outer loop
      vertex 2.69716 -0.536498 17.5
      vertex 2.69716 -0.536498 0
      vertex 2.54067 -1.05238 17.5
    endloop
  endfacet
  facet normal -0.95694 0.290285 0
    outer loop
      vertex 2.54067 -1.05238 17.5
      vertex 2.69716 -0.536498 0
      vertex 2.54067 -1.05238 0
    endloop
  endfacet
  facet normal -0.881921 0.471398 0
    outer loop
      vertex 2.54067 -1.05238 17.5
      vertex 2.54067 -1.05238 0
      vertex 2.28654 -1.52782 17.5
    endloop
  endfacet
  facet normal -0.881921 0.471398 0
    outer loop
      vertex 2.28654 -1.52782 17.5
      vertex 2.54067 -1.05238 0
      vertex 2.28654 -1.52782 0
    endloop
  endfacet
  facet normal -0.773012 0.634392 0
    outer loop
      vertex 2.28654 -1.52782 17.5
      vertex 2.28654 -1.52782 0
      vertex 1.94454 -1.94454 17.5
    endloop
  endfacet
  facet normal -0.773012 0.634392 0
    outer loop
      vertex 1.94454 -1.94454 17.5
      vertex 2.28654 -1.52782 0
      vertex 1.94454 -1.94454 0
    endloop
  endfacet
  facet normal -0.634392 0.773012 0
    outer loop
      vertex 1.94454 -1.94454 17.5
      vertex 1.94454 -1.94454 0
      vertex 1.52782 -2.28654 17.5
    endloop
  endfacet
  facet normal -0.634392 0.773012 0
    outer loop
      vertex 1.52782 -2.28654 17.5
      vertex 1.94454 -1.94454 0
      vertex 1.52782 -2.28654 0
    endloop
  endfacet
  facet normal -0.471398 0.881921 0
    outer loop
      vertex 1.52782 -2.28654 17.5
      vertex 1.52782 -2.28654 0
      vertex 1.05238 -2.54067 17.5
    endloop
  endfacet
  facet normal -0.471398 0.881921 0
    outer loop
      vertex 1.05238 -2.54067 17.5
      vertex 1.52782 -2.28654 0
      vertex 1.05238 -2.54067 0
    endloop
  endfacet
  facet normal -0.290285 0.95694 0
    outer loop
      vertex 1.05238 -2.54067 17.5
      vertex 1.05238 -2.54067 0
      vertex 0.536498 -2.69716 17.5
    endloop
  endfacet
  facet normal -0.290285 0.95694 0
    outer loop
      vertex 0.536498 -2.69716 17.5
      vertex 1.05238 -2.54067 0
      vertex 0.536498 -2.69716 0
    endloop
  endfacet
  facet normal -0.0980163 0.995185 0
    outer loop
      vertex 0.536498 -2.69716 17.5
      vertex 0.536498 -2.69716 0
      vertex 0 -2.75 17.5
    endloop
  endfacet
  facet normal -0.0980163 0.995185 0
    outer loop
      vertex 0 -2.75 17.5
      vertex 0.536498 -2.69716 0
      vertex 0 -2.75 0
    endloop
  endfacet
  facet normal 0.0980163 0.995185 0
    outer loop
      vertex 0 -2.75 17.5
      vertex 0 -2.75 0
      vertex -0.536498 -2.69716 17.5
    endloop
  endfacet
  facet normal 0.0980163 0.995185 0
    outer loop
      vertex -0.536498 -2.69716 17.5
      vertex 0 -2.75 0
      vertex -0.536498 -2.69716 0
    endloop
  endfacet
  facet normal 0.290285 0.95694 0
    outer loop
      vertex -0.536498 -2.69716 17.5
      vertex -0.536498 -2.69716 0
      vertex -1.05238 -2.54067 17.5
    endloop
  endfacet
  facet normal 0.290285 0.95694 0
    outer loop
      vertex -1.05238 -2.54067 17.5
      vertex -0.536498 -2.69716 0
      vertex -1.05238 -2.54067 0
    endloop
  endfacet
  facet normal 0.471398 0.881921 0
    outer loop
      vertex -1.05238 -2.54067 17.5
      vertex -1.05238 -2.54067 0
      vertex -1.52782 -2.28654 17.5
    endloop
  endfacet
  facet normal 0.471398 0.881921 0
    outer loop
      vertex -1.52782 -2.28654 17.5
      vertex -1.05238 -2.54067 0
      vertex -1.52782 -2.28654 0
    endloop
  endfacet
  facet normal 0.634392 0.773012 0
    outer loop
      vertex -1.52782 -2.28654 17.5
      vertex -1.52782 -2.28654 0
      vertex -1.94454 -1.94454 17.5
    endloop
  endfacet
  facet normal 0.634392 0.773012 0
    outer loop
      vertex -1.94454 -1.94454 17.5
      vertex -1.52782 -2.28654 0
      vertex -1.94454 -1.94454 0
    endloop
  endfacet
  facet normal 0.773012 0.634392 0
    outer loop
      vertex -2.28654 -1.52782 17.5
      vertex -1.94454 -1.94454 17.5
      vertex -1.94454 -1.94454 0
    endloop
  endfacet
  facet normal 0.773012 0.634392 0
    outer loop
      vertex -2.28654 -1.52782 0
      vertex -2.28654 -1.52782 17.5
      vertex -1.94454 -1.94454 0
    endloop
  endfacet
  facet normal 0.881921 0.471398 0
    outer loop
      vertex -2.54067 -1.05238 17.5
      vertex -2.28654 -1.52782 17.5
      vertex -2.28654 -1.52782 0
    endloop
  endfacet
  facet normal 0.881921 0.471398 0
    outer loop
      vertex -2.54067 -1.05238 0
      vertex -2.54067 -1.05238 17.5
      vertex -2.28654 -1.52782 0
    endloop
  endfacet
  facet normal 0.95694 0.290285 0
    outer loop
      vertex -2.69716 -0.536498 17.5
      vertex -2.54067 -1.05238 17.5
      vertex -2.54067 -1.05238 0
    endloop
  endfacet
  facet normal 0.95694 0.290285 0
    outer loop
      vertex -2.69716 -0.536498 0
      vertex -2.69716 -0.536498 17.5
      vertex -2.54067 -1.05238 0
    endloop
  endfacet
  facet normal 0 0 1
    outer loop
      vertex -4.98039 0 15
      vertex -5 0 15
      vertex -4.90393 -0.975452 15
    endloop
  endfacet
  facet normal 0 0 1
    outer loop
      vertex 3.52167 -3.52167 15
      vertex 3.50978 -3.53142 15
      vertex 3.53553 -3.53553 15
    endloop
  endfacet
  facet normal 0 0 1
    outer loop
      vertex 1.91947 4.59403 15
      vertex 2.76696 4.14104 15
      vertex 2.77785 4.15735 15
    endloop
  endfacet
  facet normal 0 0 1
    outer loop
      vertex 0.0153012 4.97889 15
      vertex 0.971627 4.88469 15
      vertex 0.975452 4.90393 15
    endloop
  endfacet
  facet normal 0 0 1
    outer loop
      vertex -0.956325 4.8862 15
      vertex 0 4.98039 15
      vertex 0 5 15
    endloop
  endfacet
  facet normal 0 0 1
    outer loop
      vertex -1.8912 4.60575 15
      vertex -0.971627 4.88469 15
      vertex -0.975452 4.90393 15
    endloop
  endfacet
  facet normal 0 0 1
    outer loop
      vertex -2.7534 4.14829 15
      vertex -1.90591 4.60128 15
      vertex -1.91342 4.6194 15
    endloop
  endfacet
  facet normal 0 0 1
    outer loop
      vertex -3.50978 3.53142 15
      vertex -2.76696 4.14104 15
      vertex -2.77785 4.15735 15
    endloop
  endfacet
  facet normal 0 0 1
    outer loop
      vertex -4.59403 1.91947 15
      vertex -4.14104 2.76696 15
      vertex -4.15735 2.77785 15
    endloop
  endfacet
  facet normal 0 0 1
    outer loop
      vertex -4.13129 2.77884 15
      vertex -3.52167 3.52167 15
      vertex -3.53553 3.53553 15
    endloop
  endfacet
  facet normal 0 0 1
    outer loop
      vertex -4.90393 0.975452 15
      vertex -5 0 15
      vertex -4.98039 0 15
    endloop
  endfacet
  facet normal 0 0 1
    outer loop
      vertex -4.90393 0.975452 15
      vertex -4.98039 0 15
      vertex -4.97889 0.0153012 15
    endloop
  endfacet
  facet normal 0 0 1
    outer loop
      vertex 4.14104 -2.76696 15
      vertex 4.13129 -2.77884 15
      vertex 4.15735 -2.77785 15
    endloop
  endfacet
  facet normal 0 0 1
    outer loop
      vertex 2.77884 4.13129 15
      vertex 3.52167 3.52167 15
      vertex 3.53553 3.53553 15
    endloop
  endfacet
  facet normal 0 0 1
    outer loop
      vertex -4.6194 1.91342 15
      vertex -4.60128 1.90591 15
      vertex -4.15735 2.77785 15
    endloop
  endfacet
  facet normal 0 0 1
    outer loop
      vertex -4.6194 1.91342 15
      vertex -4.90393 0.975452 15
      vertex -4.60128 1.90591 15
    endloop
  endfacet
  facet normal 0 0 1
    outer loop
      vertex -4.60128 1.90591 15
      vertex -4.59403 1.91947 15
      vertex -4.15735 2.77785 15
    endloop
  endfacet
  facet normal 0 0 1
    outer loop
      vertex -4.15735 2.77785 15
      vertex -4.14104 2.76696 15
      vertex -3.53553 3.53553 15
    endloop
  endfacet
  facet normal 0 0 1
    outer loop
      vertex 0.98634 4.88023 15
      vertex 1.90591 4.60128 15
      vertex 1.91342 4.6194 15
    endloop
  endfacet
  facet normal 0 0 1
    outer loop
      vertex -4.14104 2.76696 15
      vertex -4.13129 2.77884 15
      vertex -3.53553 3.53553 15
    endloop
  endfacet
  facet normal 0 0 1
    outer loop
      vertex -3.53553 3.53553 15
      vertex -3.52167 3.52167 15
      vertex -2.77785 4.15735 15
    endloop
  endfacet
  facet normal 0 0 1
    outer loop
      vertex -3.52167 3.52167 15
      vertex -3.50978 3.53142 15
      vertex -2.77785 4.15735 15
    endloop
  endfacet
  facet normal 0 0 1
    outer loop
      vertex -2.77785 4.15735 15
      vertex -2.76696 4.14104 15
      vertex -1.91342 4.6194 15
    endloop
  endfacet
  facet normal 0 0 1
    outer loop
      vertex -2.76696 4.14104 15
      vertex -2.7534 4.14829 15
      vertex -1.91342 4.6194 15
    endloop
  endfacet
  facet normal 0 0 1
    outer loop
      vertex -1.91342 4.6194 15
      vertex -1.90591 4.60128 15
      vertex -0.975452 4.90393 15
    endloop
  endfacet
  facet normal 0 0 1
    outer loop
      vertex -1.90591 4.60128 15
      vertex -1.8912 4.60575 15
      vertex -0.975452 4.90393 15
    endloop
  endfacet
  facet normal 0 0 1
    outer loop
      vertex -0.975452 4.90393 15
      vertex -0.971627 4.88469 15
      vertex 0 5 15
    endloop
  endfacet
  facet normal 0 0 1
    outer loop
      vertex -0.971627 4.88469 15
      vertex -0.956325 4.8862 15
      vertex 0 5 15
    endloop
  endfacet
  facet normal 0 0 1
    outer loop
      vertex 0 5 15
      vertex 0 4.98039 15
      vertex 0.975452 4.90393 15
    endloop
  endfacet
  facet normal 0 0 1
    outer loop
      vertex 0 4.98039 15
      vertex 0.0153012 4.97889 15
      vertex 0.975452 4.90393 15
    endloop
  endfacet
  facet normal 0 0 1
    outer loop
      vertex 0.975452 4.90393 15
      vertex 0.971627 4.88469 15
      vertex 1.91342 4.6194 15
    endloop
  endfacet
  facet normal 0 0 1
    outer loop
      vertex 0.971627 4.88469 15
      vertex 0.98634 4.88023 15
      vertex 1.91342 4.6194 15
    endloop
  endfacet
  facet normal 0 0 1
    outer loop
      vertex 1.91342 4.6194 15
      vertex 1.90591 4.60128 15
      vertex 2.77785 4.15735 15
    endloop
  endfacet
  facet normal 0 0 1
    outer loop
      vertex 1.90591 4.60128 15
      vertex 1.91947 4.59403 15
      vertex 2.77785 4.15735 15
    endloop
  endfacet
  facet normal 0 0 1
    outer loop
      vertex 2.77785 4.15735 15
      vertex 2.76696 4.14104 15
      vertex 3.53553 3.53553 15
    endloop
  endfacet
  facet normal 0 0 1
    outer loop
      vertex 2.76696 4.14104 15
      vertex 2.77884 4.13129 15
      vertex 3.53553 3.53553 15
    endloop
  endfacet
  facet normal 0 0 1
    outer loop
      vertex 3.53553 3.53553 15
      vertex 3.52167 3.52167 15
      vertex 4.15735 2.77785 15
    endloop
  endfacet
  facet normal 0 0 1
    outer loop
      vertex 3.52167 3.52167 15
      vertex 3.53142 3.50978 15
      vertex 4.15735 2.77785 15
    endloop
  endfacet
  facet normal 0 0 1
    outer loop
      vertex 4.15735 2.77785 15
      vertex 4.14104 2.76696 15
      vertex 4.6194 1.91342 15
    endloop
  endfacet
  facet normal 0 0 1
    outer loop
      vertex 4.14104 2.76696 15
      vertex 4.14829 2.7534 15
      vertex 4.6194 1.91342 15
    endloop
  endfacet
  facet normal 0 0 1
    outer loop
      vertex 4.6194 1.91342 15
      vertex 4.60128 1.90591 15
      vertex 4.90393 0.975452 15
    endloop
  endfacet
  facet normal 0 0 1
    outer loop
      vertex 4.60128 1.90591 15
      vertex 4.60575 1.8912 15
      vertex 4.90393 0.975452 15
    endloop
  endfacet
  facet normal 0 0 1
    outer loop
      vertex 4.90393 0.975452 15
      vertex 4.88469 0.971627 15
      vertex 5 0 15
    endloop
  endfacet
  facet normal 0 0 1
    outer loop
      vertex 4.88469 0.971627 15
      vertex 4.8862 0.956325 15
      vertex 5 0 15
    endloop
  endfacet
  facet normal 0 0 1
    outer loop
      vertex 5 0 15
      vertex 4.98039 0 15
      vertex 4.90393 -0.975452 15
    endloop
  endfacet
  facet normal 0 0 1
    outer loop
      vertex 4.98039 0 15
      vertex 4.97889 -0.0153012 15
      vertex 4.90393 -0.975452 15
    endloop
  endfacet
  facet normal 0 0 1
    outer loop
      vertex 4.97889 -0.0153012 15
      vertex 4.88469 -0.971627 15
      vertex 4.90393 -0.975452 15
    endloop
  endfacet
  facet normal 0 0 1
    outer loop
      vertex 4.90393 -0.975452 15
      vertex 4.88023 -0.98634 15
      vertex 4.6194 -1.91342 15
    endloop
  endfacet
  facet normal 0 0 1
    outer loop
      vertex 4.88023 -0.98634 15
      vertex 4.60128 -1.90591 15
      vertex 4.6194 -1.91342 15
    endloop
  endfacet
  facet normal 0 0 1
    outer loop
      vertex 4.6194 -1.91342 15
      vertex 4.59403 -1.91947 15
      vertex 4.15735 -2.77785 15
    endloop
  endfacet
  facet normal 0 0 1
    outer loop
      vertex 4.59403 -1.91947 15
      vertex 4.14104 -2.76696 15
      vertex 4.15735 -2.77785 15
    endloop
  endfacet
  facet normal 0 0 1
    outer loop
      vertex 3.53142 3.50978 15
      vertex 4.14104 2.76696 15
      vertex 4.15735 2.77785 15
    endloop
  endfacet
  facet normal 0 0 1
    outer loop
      vertex 4.15735 -2.77785 15
      vertex 4.13129 -2.77884 15
      vertex 3.53553 -3.53553 15
    endloop
  endfacet
  facet normal 0 0 1
    outer loop
      vertex 4.13129 -2.77884 15
      vertex 3.52167 -3.52167 15
      vertex 3.53553 -3.53553 15
    endloop
  endfacet
  facet normal 0 0 1
    outer loop
      vertex 4.14829 2.7534 15
      vertex 4.60128 1.90591 15
      vertex 4.6194 1.91342 15
    endloop
  endfacet
  facet normal 0 0 1
    outer loop
      vertex 3.53553 -3.53553 15
      vertex 3.50978 -3.53142 15
      vertex 2.77785 -4.15735 15
    endloop
  endfacet
  facet normal 0 0 1
    outer loop
      vertex 3.50978 -3.53142 15
      vertex 2.76696 -4.14104 15
      vertex 2.77785 -4.15735 15
    endloop
  endfacet
  facet normal 0 0 1
    outer loop
      vertex 4.60575 1.8912 15
      vertex 4.88469 0.971627 15
      vertex 4.90393 0.975452 15
    endloop
  endfacet
  facet normal 0 0 1
    outer loop
      vertex 2.77785 -4.15735 15
      vertex 2.7534 -4.14829 15
      vertex 1.91342 -4.6194 15
    endloop
  endfacet
  facet normal 0 0 1
    outer loop
      vertex 2.7534 -4.14829 15
      vertex 1.90591 -4.60128 15
      vertex 1.91342 -4.6194 15
    endloop
  endfacet
  facet normal 0 0 1
    outer loop
      vertex 4.8862 0.956325 15
      vertex 4.98039 0 15
      vertex 5 0 15
    endloop
  endfacet
  facet normal 0 0 1
    outer loop
      vertex 1.91342 -4.6194 15
      vertex 1.8912 -4.60575 15
      vertex 0.975452 -4.90393 15
    endloop
  endfacet
  facet normal 0 0 1
    outer loop
      vertex 1.8912 -4.60575 15
      vertex 0.971627 -4.88469 15
      vertex 0.975452 -4.90393 15
    endloop
  endfacet
  facet normal 0 0 1
    outer loop
      vertex 4.88469 -0.971627 15
      vertex 4.88023 -0.98634 15
      vertex 4.90393 -0.975452 15
    endloop
  endfacet
  facet normal 0 0 1
    outer loop
      vertex 0.975452 -4.90393 15
      vertex 0.956325 -4.8862 15
      vertex 0 -5 15
    endloop
  endfacet
  facet normal 0 0 1
    outer loop
      vertex 0.956325 -4.8862 15
      vertex 0 -4.98039 15
      vertex 0 -5 15
    endloop
  endfacet
  facet normal 0 0 1
    outer loop
      vertex 0 -4.98039 15
      vertex -0.0153012 -4.97889 15
      vertex 0 -5 15
    endloop
  endfacet
  facet normal 0 0 1
    outer loop
      vertex 4.60128 -1.90591 15
      vertex 4.59403 -1.91947 15
      vertex 4.6194 -1.91342 15
    endloop
  endfacet
  facet normal 0 0 1
    outer loop
      vertex 0 -5 15
      vertex -0.971627 -4.88469 15
      vertex -0.975452 -4.90393 15
    endloop
  endfacet
  facet normal 0 0 1
    outer loop
      vertex -4.88469 0.971627 15
      vertex -4.88023 0.98634 15
      vertex -4.90393 0.975452 15
    endloop
  endfacet
  facet normal 0 0 1
    outer loop
      vertex -0.971627 -4.88469 15
      vertex -0.98634 -4.88023 15
      vertex -0.975452 -4.90393 15
    endloop
  endfacet
  facet normal 0 0 1
    outer loop
      vertex -0.975452 -4.90393 15
      vertex -1.90591 -4.60128 15
      vertex -1.91342 -4.6194 15
    endloop
  endfacet
  facet normal 0 0 1
    outer loop
      vertex -4.88023 0.98634 15
      vertex -4.60128 1.90591 15
      vertex -4.90393 0.975452 15
    endloop
  endfacet
  facet normal 0 0 1
    outer loop
      vertex -1.90591 -4.60128 15
      vertex -1.91947 -4.59403 15
      vertex -1.91342 -4.6194 15
    endloop
  endfacet
  facet normal 0 0 1
    outer loop
      vertex -1.91342 -4.6194 15
      vertex -2.76696 -4.14104 15
      vertex -2.77785 -4.15735 15
    endloop
  endfacet
  facet normal 0 0 1
    outer loop
      vertex -2.76696 -4.14104 15
      vertex -2.77884 -4.13129 15
      vertex -2.77785 -4.15735 15
    endloop
  endfacet
  facet normal 0 0 1
    outer loop
      vertex -2.77785 -4.15735 15
      vertex -3.52167 -3.52167 15
      vertex -3.53553 -3.53553 15
    endloop
  endfacet
  facet normal 0 0 1
    outer loop
      vertex -3.52167 -3.52167 15
      vertex -3.53142 -3.50978 15
      vertex -3.53553 -3.53553 15
    endloop
  endfacet
  facet normal 0 0 1
    outer loop
      vertex -3.53553 -3.53553 15
      vertex -4.14104 -2.76696 15
      vertex -4.15735 -2.77785 15
    endloop
  endfacet
  facet normal 0 0 1
    outer loop
      vertex -4.14104 -2.76696 15
      vertex -4.14829 -2.7534 15
      vertex -4.15735 -2.77785 15
    endloop
  endfacet
  facet normal 0 0 1
    outer loop
      vertex -4.15735 -2.77785 15
      vertex -4.60128 -1.90591 15
      vertex -4.6194 -1.91342 15
    endloop
  endfacet
  facet normal 0 0 1
    outer loop
      vertex -4.60128 -1.90591 15
      vertex -4.60575 -1.8912 15
      vertex -4.6194 -1.91342 15
    endloop
  endfacet
  facet normal 0 0 1
    outer loop
      vertex -4.6194 -1.91342 15
      vertex -4.88469 -0.971627 15
      vertex -4.90393 -0.975452 15
    endloop
  endfacet
  facet normal 0 0 1
    outer loop
      vertex -4.88469 -0.971627 15
      vertex -4.8862 -0.956325 15
      vertex -4.90393 -0.975452 15
    endloop
  endfacet
  facet normal 0 0 1
    outer loop
      vertex -4.8862 -0.956325 15
      vertex -4.98039 0 15
      vertex -4.90393 -0.975452 15
    endloop
  endfacet
  facet normal 0 0 1
    outer loop
      vertex 2.76696 -4.14104 15
      vertex 2.7534 -4.14829 15
      vertex 2.77785 -4.15735 15
    endloop
  endfacet
  facet normal 0 0 1
    outer loop
      vertex 1.90591 -4.60128 15
      vertex 1.8912 -4.60575 15
      vertex 1.91342 -4.6194 15
    endloop
  endfacet
  facet normal 0 0 1
    outer loop
      vertex 0.971627 -4.88469 15
      vertex 0.956325 -4.8862 15
      vertex 0.975452 -4.90393 15
    endloop
  endfacet
  facet normal 0 0 1
    outer loop
      vertex -0.0153012 -4.97889 15
      vertex -0.971627 -4.88469 15
      vertex 0 -5 15
    endloop
  endfacet
  facet normal 0 0 1
    outer loop
      vertex -0.98634 -4.88023 15
      vertex -1.90591 -4.60128 15
      vertex -0.975452 -4.90393 15
    endloop
  endfacet
  facet normal 0 0 1
    outer loop
      vertex -1.91947 -4.59403 15
      vertex -2.76696 -4.14104 15
      vertex -1.91342 -4.6194 15
    endloop
  endfacet
  facet normal 0 0 1
    outer loop
      vertex -2.77884 -4.13129 15
      vertex -3.52167 -3.52167 15
      vertex -2.77785 -4.15735 15
    endloop
  endfacet
  facet normal 0 0 1
    outer loop
      vertex -3.53142 -3.50978 15
      vertex -4.14104 -2.76696 15
      vertex -3.53553 -3.53553 15
    endloop
  endfacet
  facet normal 0 0 1
    outer loop
      vertex -4.14829 -2.7534 15
      vertex -4.60128 -1.90591 15
      vertex -4.15735 -2.77785 15
    endloop
  endfacet
  facet normal 0 0 1
    outer loop
      vertex -4.60575 -1.8912 15
      vertex -4.88469 -0.971627 15
      vertex -4.6194 -1.91342 15
    endloop
  endfacet
  facet normal 0 0 1
    outer loop
      vertex -4.97889 0.0153012 15
      vertex -4.88469 0.971627 15
      vertex -4.90393 0.975452 15
    endloop
  endfacet
  facet normal 0 0 1
    outer loop
      vertex -3.92314 0.780361 17.5
      vertex -4 0 17.5
      vertex -3.92314 -0.780361 17.5
    endloop
  endfacet
  facet normal 0 0 1
    outer loop
      vertex -3.32588 -2.22228 17.5
      vertex -3.92314 0.780361 17.5
      vertex -3.69552 -1.53073 17.5
    endloop
  endfacet
  facet normal 0 0 1
    outer loop
      vertex -3.69552 -1.53073 17.5
      vertex -3.92314 0.780361 17.5
      vertex -3.92314 -0.780361 17.5
    endloop
  endfacet
  facet normal 0 0 1
    outer loop
      vertex -2.82843 -2.82843 17.5
      vertex -3.92314 0.780361 17.5
      vertex -3.32588 -2.22228 17.5
    endloop
  endfacet
  facet normal 0 0 1
    outer loop
      vertex -2.22228 -3.32588 17.5
      vertex -3.92314 0.780361 17.5
      vertex -2.82843 -2.82843 17.5
    endloop
  endfacet
  facet normal 0 0 1
    outer loop
      vertex -1.53073 -3.69552 17.5
      vertex -3.92314 0.780361 17.5
      vertex -2.22228 -3.32588 17.5
    endloop
  endfacet
  facet normal 0 0 1
    outer loop
      vertex -0.780361 -3.92314 17.5
      vertex -3.92314 0.780361 17.5
      vertex -1.53073 -3.69552 17.5
    endloop
  endfacet
  facet normal 0 0 1
    outer loop
      vertex -2.28654 -1.52782 17.5
      vertex -3.92314 0.780361 17.5
      vertex -0.780361 -3.92314 17.5
    endloop
  endfacet
  facet normal 0 0 1
    outer loop
      vertex 1.05238 -2.54067 17.5
      vertex 0.536498 -2.69716 17.5
      vertex 2.22228 -3.32588 17.5
    endloop
  endfacet
  facet normal 0 0 1
    outer loop
      vertex 2.28654 1.52782 17.5
      vertex 2.54067 1.05238 17.5
      vertex 3.69552 1.53073 17.5
    endloop
  endfacet
  facet normal 0 0 1
    outer loop
      vertex -0.536498 2.69716 17.5
      vertex 0 2.75 17.5
      vertex 1.53073 3.69552 17.5
    endloop
  endfacet
  facet normal 0 0 1
    outer loop
      vertex 0.536498 2.69716 17.5
      vertex 1.05238 2.54067 17.5
      vertex 2.22228 3.32588 17.5
    endloop
  endfacet
  facet normal 0 0 1
    outer loop
      vertex 0 4 17.5
      vertex -3.92314 0.780361 17.5
      vertex 0.780361 3.92314 17.5
    endloop
  endfacet
  facet normal 0 0 1
    outer loop
      vertex -0.780361 3.92314 17.5
      vertex -3.92314 0.780361 17.5
      vertex 0 4 17.5
    endloop
  endfacet
  facet normal 0 0 1
    outer loop
      vertex -1.53073 3.69552 17.5
      vertex -3.92314 0.780361 17.5
      vertex -0.780361 3.92314 17.5
    endloop
  endfacet
  facet normal 0 0 1
    outer loop
      vertex -2.22228 3.32588 17.5
      vertex -3.92314 0.780361 17.5
      vertex -1.53073 3.69552 17.5
    endloop
  endfacet
  facet normal 0 0 1
    outer loop
      vertex -2.82843 2.82843 17.5
      vertex -3.92314 0.780361 17.5
      vertex -2.22228 3.32588 17.5
    endloop
  endfacet
  facet normal 0 0 1
    outer loop
      vertex -3.32588 2.22228 17.5
      vertex -3.92314 0.780361 17.5
      vertex -2.82843 2.82843 17.5
    endloop
  endfacet
  facet normal 0 0 1
    outer loop
      vertex -3.69552 1.53073 17.5
      vertex -3.92314 0.780361 17.5
      vertex -3.32588 2.22228 17.5
    endloop
  endfacet
  facet normal 0 0 1
    outer loop
      vertex -2.28654 -1.52782 17.5
      vertex -2.54067 -1.05238 17.5
      vertex -3.92314 0.780361 17.5
    endloop
  endfacet
  facet normal 0 0 1
    outer loop
      vertex -2.75 0 17.5
      vertex -2.69716 0.536498 17.5
      vertex -3.92314 0.780361 17.5
    endloop
  endfacet
  facet normal 0 0 1
    outer loop
      vertex 0.536498 -2.69716 17.5
      vertex 0 -2.75 17.5
      vertex 1.53073 -3.69552 17.5
    endloop
  endfacet
  facet normal 0 0 1
    outer loop
      vertex 2.28654 -1.52782 17.5
      vertex 1.94454 -1.94454 17.5
      vertex 3.32588 -2.22228 17.5
    endloop
  endfacet
  facet normal 0 0 1
    outer loop
      vertex 2.54067 1.05238 17.5
      vertex 2.69716 0.536498 17.5
      vertex 3.92314 0.780361 17.5
    endloop
  endfacet
  facet normal 0 0 1
    outer loop
      vertex 1.05238 2.54067 17.5
      vertex 1.52782 2.28654 17.5
      vertex 2.82843 2.82843 17.5
    endloop
  endfacet
  facet normal 0 0 1
    outer loop
      vertex -1.52782 2.28654 17.5
      vertex -1.05238 2.54067 17.5
      vertex 0.780361 3.92314 17.5
    endloop
  endfacet
  facet normal 0 0 1
    outer loop
      vertex 1.52782 2.28654 17.5
      vertex 1.94454 1.94454 17.5
      vertex 3.32588 2.22228 17.5
    endloop
  endfacet
  facet normal 0 0 1
    outer loop
      vertex -1.52782 2.28654 17.5
      vertex -3.92314 0.780361 17.5
      vertex -1.94454 1.94454 17.5
    endloop
  endfacet
  facet normal 0 0 1
    outer loop
      vertex 0.780361 3.92314 17.5
      vertex -3.92314 0.780361 17.5
      vertex -1.52782 2.28654 17.5
    endloop
  endfacet
  facet normal 0 0 1
    outer loop
      vertex 0.780361 3.92314 17.5
      vertex -1.05238 2.54067 17.5
      vertex 1.53073 3.69552 17.5
    endloop
  endfacet
  facet normal 0 0 1
    outer loop
      vertex -1.05238 2.54067 17.5
      vertex -0.536498 2.69716 17.5
      vertex 1.53073 3.69552 17.5
    endloop
  endfacet
  facet normal 0 0 1
    outer loop
      vertex 1.53073 3.69552 17.5
      vertex 0 2.75 17.5
      vertex 2.22228 3.32588 17.5
    endloop
  endfacet
  facet normal 0 0 1
    outer loop
      vertex 0 2.75 17.5
      vertex 0.536498 2.69716 17.5
      vertex 2.22228 3.32588 17.5
    endloop
  endfacet
  facet normal 0 0 1
    outer loop
      vertex 2.22228 3.32588 17.5
      vertex 1.05238 2.54067 17.5
      vertex 2.82843 2.82843 17.5
    endloop
  endfacet
  facet normal 0 0 1
    outer loop
      vertex -2.28654 1.52782 17.5
      vertex -1.94454 1.94454 17.5
      vertex -3.92314 0.780361 17.5
    endloop
  endfacet
  facet normal 0 0 1
    outer loop
      vertex 2.82843 2.82843 17.5
      vertex 1.52782 2.28654 17.5
      vertex 3.32588 2.22228 17.5
    endloop
  endfacet
  facet normal 0 0 1
    outer loop
      vertex 3.32588 2.22228 17.5
      vertex 1.94454 1.94454 17.5
      vertex 3.69552 1.53073 17.5
    endloop
  endfacet
  facet normal 0 0 1
    outer loop
      vertex 1.94454 1.94454 17.5
      vertex 2.28654 1.52782 17.5
      vertex 3.69552 1.53073 17.5
    endloop
  endfacet
  facet normal 0 0 1
    outer loop
      vertex 3.69552 1.53073 17.5
      vertex 2.54067 1.05238 17.5
      vertex 3.92314 0.780361 17.5
    endloop
  endfacet
  facet normal 0 0 1
    outer loop
      vertex 3.92314 0.780361 17.5
      vertex 2.69716 0.536498 17.5
      vertex 4 0 17.5
    endloop
  endfacet
  facet normal 0 0 1
    outer loop
      vertex 1.94454 -1.94454 17.5
      vertex 1.52782 -2.28654 17.5
      vertex 2.82843 -2.82843 17.5
    endloop
  endfacet
  facet normal 0 0 1
    outer loop
      vertex 4 0 17.5
      vertex 2.75 0 17.5
      vertex 3.92314 -0.780361 17.5
    endloop
  endfacet
  facet normal 0 0 1
    outer loop
      vertex -2.54067 1.05238 17.5
      vertex -2.28654 1.52782 17.5
      vertex -3.92314 0.780361 17.5
    endloop
  endfacet
  facet normal 0 0 1
    outer loop
      vertex 2.75 0 17.5
      vertex 2.69716 -0.536498 17.5
      vertex 3.92314 -0.780361 17.5
    endloop
  endfacet
  facet normal 0 0 1
    outer loop
      vertex 3.92314 -0.780361 17.5
      vertex 2.54067 -1.05238 17.5
      vertex 3.69552 -1.53073 17.5
    endloop
  endfacet
  facet normal 0 0 1
    outer loop
      vertex 3.69552 -1.53073 17.5
      vertex 2.28654 -1.52782 17.5
      vertex 3.32588 -2.22228 17.5
    endloop
  endfacet
  facet normal 0 0 1
    outer loop
      vertex 2.69716 0.536498 17.5
      vertex 2.75 0 17.5
      vertex 4 0 17.5
    endloop
  endfacet
  facet normal 0 0 1
    outer loop
      vertex 3.32588 -2.22228 17.5
      vertex 1.94454 -1.94454 17.5
      vertex 2.82843 -2.82843 17.5
    endloop
  endfacet
  facet normal 0 0 1
    outer loop
      vertex 2.69716 -0.536498 17.5
      vertex 2.54067 -1.05238 17.5
      vertex 3.92314 -0.780361 17.5
    endloop
  endfacet
  facet normal 0 0 1
    outer loop
      vertex 2.82843 -2.82843 17.5
      vertex 1.52782 -2.28654 17.5
      vertex 2.22228 -3.32588 17.5
    endloop
  endfacet
  facet normal 0 0 1
    outer loop
      vertex 1.52782 -2.28654 17.5
      vertex 1.05238 -2.54067 17.5
      vertex 2.22228 -3.32588 17.5
    endloop
  endfacet
  facet normal 0 0 1
    outer loop
      vertex 2.22228 -3.32588 17.5
      vertex 0.536498 -2.69716 17.5
      vertex 1.53073 -3.69552 17.5
    endloop
  endfacet
  facet normal 0 0 1
    outer loop
      vertex 1.53073 -3.69552 17.5
      vertex 0 -2.75 17.5
      vertex 0.780361 -3.92314 17.5
    endloop
  endfacet
  facet normal 0 0 1
    outer loop
      vertex 0 -2.75 17.5
      vertex -0.536498 -2.69716 17.5
      vertex 0.780361 -3.92314 17.5
    endloop
  endfacet
  facet normal 0 0 1
    outer loop
      vertex 0.780361 -3.92314 17.5
      vertex -0.536498 -2.69716 17.5
      vertex 0 -4 17.5
    endloop
  endfacet
  facet normal 0 0 1
    outer loop
      vertex -0.536498 -2.69716 17.5
      vertex -1.05238 -2.54067 17.5
      vertex 0 -4 17.5
    endloop
  endfacet
  facet normal 0 0 1
    outer loop
      vertex 0 -4 17.5
      vertex -1.52782 -2.28654 17.5
      vertex -0.780361 -3.92314 17.5
    endloop
  endfacet
  facet normal 0 0 1
    outer loop
      vertex -1.52782 -2.28654 17.5
      vertex -1.94454 -1.94454 17.5
      vertex -0.780361 -3.92314 17.5
    endloop
  endfacet
  facet normal 0 0 1
    outer loop
      vertex -1.94454 -1.94454 17.5
      vertex -2.28654 -1.52782 17.5
      vertex -0.780361 -3.92314 17.5
    endloop
  endfacet
  facet normal 0 0 1
    outer loop
      vertex -2.54067 -1.05238 17.5
      vertex -2.69716 -0.536498 17.5
      vertex -3.92314 0.780361 17.5
    endloop
  endfacet
  facet normal 0 0 1
    outer loop
      vertex -1.05238 -2.54067 17.5
      vertex -1.52782 -2.28654 17.5
      vertex 0 -4 17.5
    endloop
  endfacet
  facet normal 0 0 1
    outer loop
      vertex -2.69716 -0.536498 17.5
      vertex -2.75 0 17.5
      vertex -3.92314 0.780361 17.5
    endloop
  endfacet
  facet normal 0 0 1
    outer loop
      vertex 2.54067 -1.05238 17.5
      vertex 2.28654 -1.52782 17.5
      vertex 3.69552 -1.53073 17.5
    endloop
  endfacet
  facet normal 0 0 1
    outer loop
      vertex -2.69716 0.536498 17.5
      vertex -2.54067 1.05238 17.5
      vertex -3.92314 0.780361 17.5
    endloop
  endfacet
  facet normal -0.927084 0.09131 0.363562
    outer loop
      vertex -4.98039 0 15
      vertex -4 0 17.5
      vertex -4.97889 0.0153012 15
    endloop
  endfacet
  facet normal -0.927084 0.09131 0.363562
    outer loop
      vertex -4.97889 0.0153012 15
      vertex -4 0 17.5
      vertex -3.92314 0.780361 17.5
    endloop
  endfacet
  facet normal -0.927084 -0.0913102 0.363562
    outer loop
      vertex -4 0 17.5
      vertex -4.98039 0 15
      vertex -4.8862 -0.956325 15
    endloop
  endfacet
  facet normal -0.927084 -0.09131 0.363562
    outer loop
      vertex -4.8862 -0.956325 15
      vertex -4.88469 -0.971627 15
      vertex -4 0 17.5
    endloop
  endfacet
  facet normal -0.927084 -0.09131 0.363562
    outer loop
      vertex -4 0 17.5
      vertex -4.88469 -0.971627 15
      vertex -3.92314 -0.780361 17.5
    endloop
  endfacet
  facet normal -0.891457 -0.27042 0.363562
    outer loop
      vertex -3.92314 -0.780361 17.5
      vertex -4.88469 -0.971627 15
      vertex -4.60575 -1.8912 15
    endloop
  endfacet
  facet normal -0.891457 -0.27042 0.363562
    outer loop
      vertex -4.60575 -1.8912 15
      vertex -4.60128 -1.90591 15
      vertex -3.92314 -0.780361 17.5
    endloop
  endfacet
  facet normal -0.891457 -0.27042 0.363562
    outer loop
      vertex -3.92314 -0.780361 17.5
      vertex -4.60128 -1.90591 15
      vertex -3.69552 -1.53073 17.5
    endloop
  endfacet
  facet normal -0.821571 -0.439139 0.363562
    outer loop
      vertex -3.69552 -1.53073 17.5
      vertex -4.60128 -1.90591 15
      vertex -4.14829 -2.7534 15
    endloop
  endfacet
  facet normal -0.821571 -0.439139 0.363562
    outer loop
      vertex -4.14829 -2.7534 15
      vertex -4.14104 -2.76696 15
      vertex -3.69552 -1.53073 17.5
    endloop
  endfacet
  facet normal -0.821571 -0.439139 0.363562
    outer loop
      vertex -3.69552 -1.53073 17.5
      vertex -4.14104 -2.76696 15
      vertex -3.32588 -2.22228 17.5
    endloop
  endfacet
  facet normal -0.720113 -0.590981 0.363562
    outer loop
      vertex -3.32588 -2.22228 17.5
      vertex -4.14104 -2.76696 15
      vertex -3.53142 -3.50978 15
    endloop
  endfacet
  facet normal -0.720113 -0.590982 0.363562
    outer loop
      vertex -3.53142 -3.50978 15
      vertex -3.52167 -3.52167 15
      vertex -3.32588 -2.22228 17.5
    endloop
  endfacet
  facet normal -0.720113 -0.590982 0.363562
    outer loop
      vertex -3.32588 -2.22228 17.5
      vertex -3.52167 -3.52167 15
      vertex -2.82843 -2.82843 17.5
    endloop
  endfacet
  facet normal -0.590981 -0.720113 0.363562
    outer loop
      vertex -2.82843 -2.82843 17.5
      vertex -3.52167 -3.52167 15
      vertex -2.77884 -4.13129 15
    endloop
  endfacet
  facet normal -0.590982 -0.720113 0.363562
    outer loop
      vertex -2.22228 -3.32588 17.5
      vertex -2.82843 -2.82843 17.5
      vertex -2.77884 -4.13129 15
    endloop
  endfacet
  facet normal -0.590982 -0.720113 0.363562
    outer loop
      vertex -2.76696 -4.14104 15
      vertex -2.22228 -3.32588 17.5
      vertex -2.77884 -4.13129 15
    endloop
  endfacet
  facet normal -0.439139 -0.821571 0.363562
    outer loop
      vertex -2.22228 -3.32588 17.5
      vertex -2.76696 -4.14104 15
      vertex -1.91947 -4.59403 15
    endloop
  endfacet
  facet normal -0.439139 -0.821571 0.363562
    outer loop
      vertex -1.53073 -3.69552 17.5
      vertex -2.22228 -3.32588 17.5
      vertex -1.91947 -4.59403 15
    endloop
  endfacet
  facet normal -0.439139 -0.821571 0.363562
    outer loop
      vertex -1.90591 -4.60128 15
      vertex -1.53073 -3.69552 17.5
      vertex -1.91947 -4.59403 15
    endloop
  endfacet
  facet normal -0.27042 -0.891457 0.363562
    outer loop
      vertex -1.53073 -3.69552 17.5
      vertex -1.90591 -4.60128 15
      vertex -0.98634 -4.88023 15
    endloop
  endfacet
  facet normal -0.27042 -0.891457 0.363562
    outer loop
      vertex -0.780361 -3.92314 17.5
      vertex -1.53073 -3.69552 17.5
      vertex -0.98634 -4.88023 15
    endloop
  endfacet
  facet normal -0.27042 -0.891457 0.363562
    outer loop
      vertex -0.971627 -4.88469 15
      vertex -0.780361 -3.92314 17.5
      vertex -0.98634 -4.88023 15
    endloop
  endfacet
  facet normal -0.0913102 -0.927084 0.363562
    outer loop
      vertex -0.780361 -3.92314 17.5
      vertex -0.971627 -4.88469 15
      vertex -0.0153012 -4.97889 15
    endloop
  endfacet
  facet normal -0.09131 -0.927084 0.363562
    outer loop
      vertex 0 -4 17.5
      vertex -0.780361 -3.92314 17.5
      vertex -0.0153012 -4.97889 15
    endloop
  endfacet
  facet normal -0.09131 -0.927084 0.363562
    outer loop
      vertex 0 -4.98039 15
      vertex 0 -4 17.5
      vertex -0.0153012 -4.97889 15
    endloop
  endfacet
  facet normal 0.0913102 -0.927084 0.363562
    outer loop
      vertex 0 -4 17.5
      vertex 0 -4.98039 15
      vertex 0.956325 -4.8862 15
    endloop
  endfacet
  facet normal 0.09131 -0.927084 0.363562
    outer loop
      vertex 0.780361 -3.92314 17.5
      vertex 0 -4 17.5
      vertex 0.956325 -4.8862 15
    endloop
  endfacet
  facet normal 0.09131 -0.927084 0.363562
    outer loop
      vertex 0.971627 -4.88469 15
      vertex 0.780361 -3.92314 17.5
      vertex 0.956325 -4.8862 15
    endloop
  endfacet
  facet normal 0.27042 -0.891457 0.363562
    outer loop
      vertex 1.8912 -4.60575 15
      vertex 0.780361 -3.92314 17.5
      vertex 0.971627 -4.88469 15
    endloop
  endfacet
  facet normal 0.27042 -0.891457 0.363562
    outer loop
      vertex 1.53073 -3.69552 17.5
      vertex 0.780361 -3.92314 17.5
      vertex 1.8912 -4.60575 15
    endloop
  endfacet
  facet normal 0.27042 -0.891457 0.363562
    outer loop
      vertex 1.90591 -4.60128 15
      vertex 1.53073 -3.69552 17.5
      vertex 1.8912 -4.60575 15
    endloop
  endfacet
  facet normal 0.439139 -0.821571 0.363562
    outer loop
      vertex 2.7534 -4.14829 15
      vertex 1.53073 -3.69552 17.5
      vertex 1.90591 -4.60128 15
    endloop
  endfacet
  facet normal 0.439139 -0.821571 0.363562
    outer loop
      vertex 2.22228 -3.32588 17.5
      vertex 1.53073 -3.69552 17.5
      vertex 2.7534 -4.14829 15
    endloop
  endfacet
  facet normal 0.439139 -0.821571 0.363562
    outer loop
      vertex 2.76696 -4.14104 15
      vertex 2.22228 -3.32588 17.5
      vertex 2.7534 -4.14829 15
    endloop
  endfacet
  facet normal 0.590981 -0.720113 0.363562
    outer loop
      vertex 3.50978 -3.53142 15
      vertex 2.22228 -3.32588 17.5
      vertex 2.76696 -4.14104 15
    endloop
  endfacet
  facet normal 0.590982 -0.720113 0.363562
    outer loop
      vertex 2.82843 -2.82843 17.5
      vertex 2.22228 -3.32588 17.5
      vertex 3.50978 -3.53142 15
    endloop
  endfacet
  facet normal 0.590982 -0.720113 0.363562
    outer loop
      vertex 3.52167 -3.52167 15
      vertex 2.82843 -2.82843 17.5
      vertex 3.50978 -3.53142 15
    endloop
  endfacet
  facet normal 0.720113 -0.590981 0.363562
    outer loop
      vertex 4.13129 -2.77884 15
      vertex 2.82843 -2.82843 17.5
      vertex 3.52167 -3.52167 15
    endloop
  endfacet
  facet normal 0.720113 -0.590982 0.363562
    outer loop
      vertex 3.32588 -2.22228 17.5
      vertex 2.82843 -2.82843 17.5
      vertex 4.13129 -2.77884 15
    endloop
  endfacet
  facet normal 0.720113 -0.590982 0.363562
    outer loop
      vertex 4.14104 -2.76696 15
      vertex 3.32588 -2.22228 17.5
      vertex 4.13129 -2.77884 15
    endloop
  endfacet
  facet normal 0.821571 -0.439139 0.363562
    outer loop
      vertex 4.59403 -1.91947 15
      vertex 3.32588 -2.22228 17.5
      vertex 4.14104 -2.76696 15
    endloop
  endfacet
  facet normal 0.821571 -0.439139 0.363562
    outer loop
      vertex 3.69552 -1.53073 17.5
      vertex 3.32588 -2.22228 17.5
      vertex 4.59403 -1.91947 15
    endloop
  endfacet
  facet normal 0.821571 -0.439139 0.363562
    outer loop
      vertex 4.60128 -1.90591 15
      vertex 3.69552 -1.53073 17.5
      vertex 4.59403 -1.91947 15
    endloop
  endfacet
  facet normal 0.891457 -0.27042 0.363562
    outer loop
      vertex 4.88023 -0.98634 15
      vertex 3.69552 -1.53073 17.5
      vertex 4.60128 -1.90591 15
    endloop
  endfacet
  facet normal 0.891457 -0.27042 0.363562
    outer loop
      vertex 3.92314 -0.780361 17.5
      vertex 3.69552 -1.53073 17.5
      vertex 4.88023 -0.98634 15
    endloop
  endfacet
  facet normal 0.891457 -0.27042 0.363562
    outer loop
      vertex 4.88469 -0.971627 15
      vertex 3.92314 -0.780361 17.5
      vertex 4.88023 -0.98634 15
    endloop
  endfacet
  facet normal 0.927084 -0.0913102 0.363562
    outer loop
      vertex 4.97889 -0.0153012 15
      vertex 3.92314 -0.780361 17.5
      vertex 4.88469 -0.971627 15
    endloop
  endfacet
  facet normal 0.927084 -0.09131 0.363562
    outer loop
      vertex 4 0 17.5
      vertex 3.92314 -0.780361 17.5
      vertex 4.97889 -0.0153012 15
    endloop
  endfacet
  facet normal 0.927084 -0.09131 0.363562
    outer loop
      vertex 4.98039 0 15
      vertex 4 0 17.5
      vertex 4.97889 -0.0153012 15
    endloop
  endfacet
  facet normal 0.927084 0.0913102 0.363562
    outer loop
      vertex 4.8862 0.956325 15
      vertex 4 0 17.5
      vertex 4.98039 0 15
    endloop
  endfacet
  facet normal 0.927084 0.09131 0.363562
    outer loop
      vertex 4.88469 0.971627 15
      vertex 3.92314 0.780361 17.5
      vertex 4 0 17.5
    endloop
  endfacet
  facet normal 0.927084 0.09131 0.363562
    outer loop
      vertex 4.8862 0.956325 15
      vertex 4.88469 0.971627 15
      vertex 4 0 17.5
    endloop
  endfacet
  facet normal 0.891457 0.27042 0.363562
    outer loop
      vertex 4.60575 1.8912 15
      vertex 3.92314 0.780361 17.5
      vertex 4.88469 0.971627 15
    endloop
  endfacet
  facet normal 0.891457 0.27042 0.363562
    outer loop
      vertex 4.60128 1.90591 15
      vertex 3.69552 1.53073 17.5
      vertex 3.92314 0.780361 17.5
    endloop
  endfacet
  facet normal 0.891457 0.27042 0.363562
    outer loop
      vertex 4.60575 1.8912 15
      vertex 4.60128 1.90591 15
      vertex 3.92314 0.780361 17.5
    endloop
  endfacet
  facet normal 0.821571 0.439139 0.363562
    outer loop
      vertex 4.14829 2.7534 15
      vertex 3.69552 1.53073 17.5
      vertex 4.60128 1.90591 15
    endloop
  endfacet
  facet normal 0.821571 0.439139 0.363562
    outer loop
      vertex 4.14104 2.76696 15
      vertex 3.32588 2.22228 17.5
      vertex 3.69552 1.53073 17.5
    endloop
  endfacet
  facet normal 0.821571 0.439139 0.363562
    outer loop
      vertex 4.14829 2.7534 15
      vertex 4.14104 2.76696 15
      vertex 3.69552 1.53073 17.5
    endloop
  endfacet
  facet normal 0.720113 0.590981 0.363562
    outer loop
      vertex 3.53142 3.50978 15
      vertex 3.32588 2.22228 17.5
      vertex 4.14104 2.76696 15
    endloop
  endfacet
  facet normal 0.720113 0.590982 0.363562
    outer loop
      vertex 3.52167 3.52167 15
      vertex 2.82843 2.82843 17.5
      vertex 3.32588 2.22228 17.5
    endloop
  endfacet
  facet normal 0.720113 0.590982 0.363562
    outer loop
      vertex 3.53142 3.50978 15
      vertex 3.52167 3.52167 15
      vertex 3.32588 2.22228 17.5
    endloop
  endfacet
  facet normal 0.590981 0.720113 0.363562
    outer loop
      vertex 3.52167 3.52167 15
      vertex 2.77884 4.13129 15
      vertex 2.82843 2.82843 17.5
    endloop
  endfacet
  facet normal 0.590982 0.720113 0.363562
    outer loop
      vertex 2.22228 3.32588 17.5
      vertex 2.82843 2.82843 17.5
      vertex 2.76696 4.14104 15
    endloop
  endfacet
  facet normal 0.590982 0.720113 0.363562
    outer loop
      vertex 2.76696 4.14104 15
      vertex 2.82843 2.82843 17.5
      vertex 2.77884 4.13129 15
    endloop
  endfacet
  facet normal 0.439139 0.821571 0.363562
    outer loop
      vertex 2.76696 4.14104 15
      vertex 1.91947 4.59403 15
      vertex 2.22228 3.32588 17.5
    endloop
  endfacet
  facet normal 0.439139 0.821571 0.363562
    outer loop
      vertex 1.53073 3.69552 17.5
      vertex 2.22228 3.32588 17.5
      vertex 1.90591 4.60128 15
    endloop
  endfacet
  facet normal 0.439139 0.821571 0.363562
    outer loop
      vertex 1.90591 4.60128 15
      vertex 2.22228 3.32588 17.5
      vertex 1.91947 4.59403 15
    endloop
  endfacet
  facet normal 0.27042 0.891457 0.363562
    outer loop
      vertex 1.90591 4.60128 15
      vertex 0.98634 4.88023 15
      vertex 1.53073 3.69552 17.5
    endloop
  endfacet
  facet normal 0.27042 0.891457 0.363562
    outer loop
      vertex 0.780361 3.92314 17.5
      vertex 1.53073 3.69552 17.5
      vertex 0.971627 4.88469 15
    endloop
  endfacet
  facet normal 0.27042 0.891457 0.363562
    outer loop
      vertex 0.971627 4.88469 15
      vertex 1.53073 3.69552 17.5
      vertex 0.98634 4.88023 15
    endloop
  endfacet
  facet normal 0.0913102 0.927084 0.363562
    outer loop
      vertex 0.971627 4.88469 15
      vertex 0.0153012 4.97889 15
      vertex 0.780361 3.92314 17.5
    endloop
  endfacet
  facet normal 0.09131 0.927084 0.363562
    outer loop
      vertex 0 4 17.5
      vertex 0.780361 3.92314 17.5
      vertex 0 4.98039 15
    endloop
  endfacet
  facet normal 0.09131 0.927084 0.363562
    outer loop
      vertex 0 4.98039 15
      vertex 0.780361 3.92314 17.5
      vertex 0.0153012 4.97889 15
    endloop
  endfacet
  facet normal -0.0913102 0.927084 0.363562
    outer loop
      vertex 0 4.98039 15
      vertex -0.956325 4.8862 15
      vertex 0 4 17.5
    endloop
  endfacet
  facet normal -0.09131 0.927084 0.363562
    outer loop
      vertex -0.971627 4.88469 15
      vertex -0.780361 3.92314 17.5
      vertex -0.956325 4.8862 15
    endloop
  endfacet
  facet normal -0.09131 0.927084 0.363562
    outer loop
      vertex -0.956325 4.8862 15
      vertex -0.780361 3.92314 17.5
      vertex 0 4 17.5
    endloop
  endfacet
  facet normal -0.27042 0.891457 0.363562
    outer loop
      vertex -0.971627 4.88469 15
      vertex -1.8912 4.60575 15
      vertex -0.780361 3.92314 17.5
    endloop
  endfacet
  facet normal -0.27042 0.891457 0.363562
    outer loop
      vertex -1.90591 4.60128 15
      vertex -1.53073 3.69552 17.5
      vertex -1.8912 4.60575 15
    endloop
  endfacet
  facet normal -0.27042 0.891457 0.363562
    outer loop
      vertex -1.8912 4.60575 15
      vertex -1.53073 3.69552 17.5
      vertex -0.780361 3.92314 17.5
    endloop
  endfacet
  facet normal -0.439139 0.821571 0.363562
    outer loop
      vertex -1.90591 4.60128 15
      vertex -2.7534 4.14829 15
      vertex -1.53073 3.69552 17.5
    endloop
  endfacet
  facet normal -0.439139 0.821571 0.363562
    outer loop
      vertex -2.76696 4.14104 15
      vertex -2.22228 3.32588 17.5
      vertex -2.7534 4.14829 15
    endloop
  endfacet
  facet normal -0.439139 0.821571 0.363562
    outer loop
      vertex -2.7534 4.14829 15
      vertex -2.22228 3.32588 17.5
      vertex -1.53073 3.69552 17.5
    endloop
  endfacet
  facet normal -0.590981 0.720113 0.363562
    outer loop
      vertex -2.76696 4.14104 15
      vertex -3.50978 3.53142 15
      vertex -2.22228 3.32588 17.5
    endloop
  endfacet
  facet normal -0.590982 0.720113 0.363562
    outer loop
      vertex -3.52167 3.52167 15
      vertex -2.82843 2.82843 17.5
      vertex -3.50978 3.53142 15
    endloop
  endfacet
  facet normal -0.590982 0.720113 0.363562
    outer loop
      vertex -3.50978 3.53142 15
      vertex -2.82843 2.82843 17.5
      vertex -2.22228 3.32588 17.5
    endloop
  endfacet
  facet normal -0.720113 0.590981 0.363562
    outer loop
      vertex -3.52167 3.52167 15
      vertex -4.13129 2.77884 15
      vertex -2.82843 2.82843 17.5
    endloop
  endfacet
  facet normal -0.720113 0.590982 0.363562
    outer loop
      vertex -4.14104 2.76696 15
      vertex -3.32588 2.22228 17.5
      vertex -4.13129 2.77884 15
    endloop
  endfacet
  facet normal -0.720113 0.590982 0.363562
    outer loop
      vertex -4.13129 2.77884 15
      vertex -3.32588 2.22228 17.5
      vertex -2.82843 2.82843 17.5
    endloop
  endfacet
  facet normal -0.821571 0.439139 0.363562
    outer loop
      vertex -4.14104 2.76696 15
      vertex -4.59403 1.91947 15
      vertex -3.32588 2.22228 17.5
    endloop
  endfacet
  facet normal -0.821571 0.439139 0.363562
    outer loop
      vertex -4.60128 1.90591 15
      vertex -3.69552 1.53073 17.5
      vertex -4.59403 1.91947 15
    endloop
  endfacet
  facet normal -0.821571 0.439139 0.363562
    outer loop
      vertex -4.59403 1.91947 15
      vertex -3.69552 1.53073 17.5
      vertex -3.32588 2.22228 17.5
    endloop
  endfacet
  facet normal -0.891457 0.27042 0.363562
    outer loop
      vertex -4.60128 1.90591 15
      vertex -4.88023 0.98634 15
      vertex -3.69552 1.53073 17.5
    endloop
  endfacet
  facet normal -0.891457 0.27042 0.363562
    outer loop
      vertex -4.88469 0.971627 15
      vertex -3.92314 0.780361 17.5
      vertex -4.88023 0.98634 15
    endloop
  endfacet
  facet normal -0.891457 0.27042 0.363562
    outer loop
      vertex -4.88023 0.98634 15
      vertex -3.92314 0.780361 17.5
      vertex -3.69552 1.53073 17.5
    endloop
  endfacet
  facet normal -0.927084 0.0913102 0.363562
    outer loop
      vertex -4.88469 0.971627 15
      vertex -4.97889 0.0153012 15
      vertex -3.92314 0.780361 17.5
    endloop
  endfacet
endsolid OpenSCAD_Model
