solid OpenSCAD_Model
  facet normal -1 0 0
    outer loop
      vertex 0 0 0
      vertex 0 0 18
      vertex 0 42 0
    endloop
  endfacet
  facet normal -1 0 0
    outer loop
      vertex 0 42 0
      vertex 0 0 18
      vertex 0 42 18
    endloop
  endfacet
  facet normal 0 -1 0
    outer loop
      vertex 18 0 8
      vertex 0 0 0
      vertex 55 0 0
    endloop
  endfacet
  facet normal 0 -1 0
    outer loop
      vertex 4 0 8
      vertex 4 0 18
      vertex 0 0 18
    endloop
  endfacet
  facet normal 0 -1 0
    outer loop
      vertex 55 0 18
      vertex 18 0 18
      vertex 55 0 0
    endloop
  endfacet
  facet normal 0 -1 0
    outer loop
      vertex 4 0 8
      vertex 0 0 0
      vertex 18 0 8
    endloop
  endfacet
  facet normal 0 -1 0
    outer loop
      vertex 0 0 18
      vertex 0 0 0
      vertex 4 0 8
    endloop
  endfacet
  facet normal 0 -1 0
    outer loop
      vertex 18 0 18
      vertex 18 0 8
      vertex 55 0 0
    endloop
  endfacet
  facet normal 0 0 -1
    outer loop
      vertex 16.8 22.3856 0
      vertex 0 42 0
      vertex 55 0 0
    endloop
  endfacet
  facet normal 0 0 -1
    outer loop
      vertex 55 0 0
      vertex 0 42 0
      vertex 55 42 0
    endloop
  endfacet
  facet normal 0 0 -1
    outer loop
      vertex 0 0 0
      vertex 0 42 0
      vertex 14.4 21 0
    endloop
  endfacet
  facet normal 0 0 -1
    outer loop
      vertex 0 0 0
      vertex 14.4 21 0
      vertex 15.2 19.6144 0
    endloop
  endfacet
  facet normal 0 0 -1
    outer loop
      vertex 0 0 0
      vertex 15.2 19.6144 0
      vertex 55 0 0
    endloop
  endfacet
  facet normal 0 0 -1
    outer loop
      vertex 15.2 19.6144 0
      vertex 16.8 19.6144 0
      vertex 55 0 0
    endloop
  endfacet
  facet normal 0 0 -1
    outer loop
      vertex 15.2 22.3856 0
      vertex 0 42 0
      vertex 16.8 22.3856 0
    endloop
  endfacet
  facet normal 0 0 -1
    outer loop
      vertex 17.6 21 0
      vertex 16.8 22.3856 0
      vertex 55 0 0
    endloop
  endfacet
  facet normal 0 0 -1
    outer loop
      vertex 14.4 21 0
      vertex 0 42 0
      vertex 15.2 22.3856 0
    endloop
  endfacet
  facet normal 0 0 -1
    outer loop
      vertex 17.6 21 0
      vertex 55 0 0
      vertex 16.8 19.6144 0
    endloop
  endfacet
  facet normal 0 1 0
    outer loop
      vertex 0 42 0
      vertex 0 42 18
      vertex 55 42 0
    endloop
  endfacet
  facet normal 0 1 0
    outer loop
      vertex 55 42 0
      vertex 0 42 18
      vertex 55 42 18
    endloop
  endfacet
  facet normal 0 0 1
    outer loop
      vertex 2 2 18
      vertex 0 0 18
      vertex 4 0 18
    endloop
  endfacet
  facet normal 0 0 1
    outer loop
      vertex 2 2 18
      vertex 2 40 18
      vertex 0 42 18
    endloop
  endfacet
  facet normal 0 0 1
    outer loop
      vertex 0 42 18
      vertex 0 0 18
      vertex 2 2 18
    endloop
  endfacet
  facet normal 0 0 1
    outer loop
      vertex 53 40 18
      vertex 0 42 18
      vertex 2 40 18
    endloop
  endfacet
  facet normal 0 0 1
    outer loop
      vertex 55 42 18
      vertex 0 42 18
      vertex 53 40 18
    endloop
  endfacet
  facet normal 0 0 1
    outer loop
      vertex 55 29 18
      vertex 53 40 18
      vertex 53 29 18
    endloop
  endfacet
  facet normal 0 0 1
    outer loop
      vertex 55 42 18
      vertex 53 40 18
      vertex 55 29 18
    endloop
  endfacet
  facet normal 0 0 1
    outer loop
      vertex 4 2 18
      vertex 2 2 18
      vertex 4 0 18
    endloop
  endfacet
  facet normal 1 0 0
    outer loop
      vertex 4 2 8
      vertex 4 2 18
      vertex 4 0 18
    endloop
  endfacet
  facet normal 1 0 0
    outer loop
      vertex 4 0 8
      vertex 4 2 8
      vertex 4 0 18
    endloop
  endfacet
  facet normal 0 0 1
    outer loop
      vertex 18 0 8
      vertex 18 2 8
      vertex 4 2 8
    endloop
  endfacet
  facet normal 0 0 1
    outer loop
      vertex 4 0 8
      vertex 18 0 8
      vertex 4 2 8
    endloop
  endfacet
  facet normal -1 0 0
    outer loop
      vertex 18 2 18
      vertex 18 2 8
      vertex 18 0 18
    endloop
  endfacet
  facet normal -1 0 0
    outer loop
      vertex 18 0 18
      vertex 18 2 8
      vertex 18 0 8
    endloop
  endfacet
  facet normal 0 0 1
    outer loop
      vertex 18 2 18
      vertex 18 0 18
      vertex 55 0 18
    endloop
  endfacet
  facet normal 0 0 1
    outer loop
      vertex 53 2 18
      vertex 18 2 18
      vertex 55 0 18
    endloop
  endfacet
  facet normal 0 0 1
    outer loop
      vertex 55 22 18
      vertex 53 2 18
      vertex 55 0 18
    endloop
  endfacet
  facet normal 0 0 1
    outer loop
      vertex 53 22 18
      vertex 53 2 18
      vertex 55 22 18
    endloop
  endfacet
  facet normal 1 0 0
    outer loop
      vertex 55 29 2
      vertex 55 0 0
      vertex 55 42 0
    endloop
  endfacet
  facet normal 1 0 0
    outer loop
      vertex 55 22 2
      vertex 55 22 18
      vertex 55 0 18
    endloop
  endfacet
  facet normal 1 0 0
    outer loop
      vertex 55 42 18
      vertex 55 29 18
      vertex 55 42 0
    endloop
  endfacet
  facet normal 1 0 0
    outer loop
      vertex 55 22 2
      vertex 55 0 0
      vertex 55 29 2
    endloop
  endfacet
  facet normal 1 0 0
    outer loop
      vertex 55 0 18
      vertex 55 0 0
      vertex 55 22 2
    endloop
  endfacet
  facet normal 1 0 0
    outer loop
      vertex 55 29 18
      vertex 55 29 2
      vertex 55 42 0
    endloop
  endfacet
  facet normal 0.866025 -0.5 0
    outer loop
      vertex 15.2 22.3856 0
      vertex 15.2 22.3856 1
      vertex 14.4 21 1
    endloop
  endfacet
  facet normal 0.866025 -0.5 0
    outer loop
      vertex 14.4 21 0
      vertex 15.2 22.3856 0
      vertex 14.4 21 1
    endloop
  endfacet
  facet normal 0.866025 0.5 0
    outer loop
      vertex 14.4 21 1
      vertex 15.2 19.6144 1
      vertex 15.2 19.6144 0
    endloop
  endfacet
  facet normal 0.866025 0.5 0
    outer loop
      vertex 14.4 21 0
      vertex 14.4 21 1
      vertex 15.2 19.6144 0
    endloop
  endfacet
  facet normal 0 -1 0
    outer loop
      vertex 16.8 22.3856 0
      vertex 16.8 22.3856 1
      vertex 15.2 22.3856 1
    endloop
  endfacet
  facet normal 0 -1 0
    outer loop
      vertex 15.2 22.3856 0
      vertex 16.8 22.3856 0
      vertex 15.2 22.3856 1
    endloop
  endfacet
  facet normal -0.866025 -0.5 0
    outer loop
      vertex 17.6 21 1
      vertex 16.8 22.3856 1
      vertex 17.6 21 0
    endloop
  endfacet
  facet normal -0.866025 -0.5 0
    outer loop
      vertex 17.6 21 0
      vertex 16.8 22.3856 1
      vertex 16.8 22.3856 0
    endloop
  endfacet
  facet normal -0.866025 0.5 0
    outer loop
      vertex 17.6 21 1
      vertex 17.6 21 0
      vertex 16.8 19.6144 1
    endloop
  endfacet
  facet normal -0.866025 0.5 0
    outer loop
      vertex 16.8 19.6144 1
      vertex 17.6 21 0
      vertex 16.8 19.6144 0
    endloop
  endfacet
  facet normal 0 1 0
    outer loop
      vertex 16.8 19.6144 1
      vertex 16.8 19.6144 0
      vertex 15.2 19.6144 1
    endloop
  endfacet
  facet normal 0 1 0
    outer loop
      vertex 15.2 19.6144 1
      vertex 16.8 19.6144 0
      vertex 15.2 19.6144 0
    endloop
  endfacet
  facet normal 0 -1 0
    outer loop
      vertex 55 29 2
      vertex 55 29 18
      vertex 53 29 18
    endloop
  endfacet
  facet normal 0 -1 0
    outer loop
      vertex 53 29 2
      vertex 55 29 2
      vertex 53 29 18
    endloop
  endfacet
  facet normal -1 0 0
    outer loop
      vertex 53 29 2
      vertex 53 29 18
      vertex 53 38 2
    endloop
  endfacet
  facet normal -1 0 0
    outer loop
      vertex 53 38 6
      vertex 53 29 18
      vertex 53 40 18
    endloop
  endfacet
  facet normal -1 0 0
    outer loop
      vertex 53 38 2
      vertex 53 29 18
      vertex 53 38 6
    endloop
  endfacet
  facet normal -1 0 0
    outer loop
      vertex 53 38 6
      vertex 53 40 18
      vertex 53 40 6
    endloop
  endfacet
  facet normal 0 -1 0
    outer loop
      vertex 2 40 18
      vertex 2 40 6
      vertex 53 40 6
    endloop
  endfacet
  facet normal 0 -1 0
    outer loop
      vertex 53 40 18
      vertex 2 40 18
      vertex 53 40 6
    endloop
  endfacet
  facet normal 1 0 0
    outer loop
      vertex 2 2 18
      vertex 2 2 6
      vertex 2 40 6
    endloop
  endfacet
  facet normal 1 0 0
    outer loop
      vertex 2 40 18
      vertex 2 2 18
      vertex 2 40 6
    endloop
  endfacet
  facet normal 0 1 0
    outer loop
      vertex 2 2 6
      vertex 2 2 18
      vertex 4 2 8
    endloop
  endfacet
  facet normal 0 1 0
    outer loop
      vertex 2 2 6
      vertex 4 2 8
      vertex 53 2 6
    endloop
  endfacet
  facet normal 0 1 0
    outer loop
      vertex 18 2 18
      vertex 53 2 6
      vertex 18 2 8
    endloop
  endfacet
  facet normal 0 1 0
    outer loop
      vertex 4 2 8
      vertex 18 2 8
      vertex 53 2 6
    endloop
  endfacet
  facet normal 0 1 0
    outer loop
      vertex 53 2 6
      vertex 18 2 18
      vertex 53 2 18
    endloop
  endfacet
  facet normal 0 1 0
    outer loop
      vertex 4 2 8
      vertex 2 2 18
      vertex 4 2 18
    endloop
  endfacet
  facet normal -1 0 0
    outer loop
      vertex 53 2 6
      vertex 53 2 18
      vertex 53 4 6
    endloop
  endfacet
  facet normal -1 0 0
    outer loop
      vertex 53 4 6
      vertex 53 2 18
      vertex 53 22 18
    endloop
  endfacet
  facet normal -1 0 0
    outer loop
      vertex 53 4 6
      vertex 53 22 18
      vertex 53 22 2
    endloop
  endfacet
  facet normal -1 0 0
    outer loop
      vertex 53 4 6
      vertex 53 22 2
      vertex 53 4 2
    endloop
  endfacet
  facet normal 0 1 0
    outer loop
      vertex 55 22 18
      vertex 55 22 2
      vertex 53 22 18
    endloop
  endfacet
  facet normal 0 1 0
    outer loop
      vertex 53 22 18
      vertex 55 22 2
      vertex 53 22 2
    endloop
  endfacet
  facet normal 0 0 1
    outer loop
      vertex 52.5 29 2
      vertex 52.5 22 2
      vertex 53 22 2
    endloop
  endfacet
  facet normal 0 0 1
    outer loop
      vertex 53 29 2
      vertex 52.5 29 2
      vertex 55 22 2
    endloop
  endfacet
  facet normal 0 0 1
    outer loop
      vertex 55 22 2
      vertex 52.5 29 2
      vertex 53 22 2
    endloop
  endfacet
  facet normal 0 0 1
    outer loop
      vertex 55 29 2
      vertex 53 29 2
      vertex 55 22 2
    endloop
  endfacet
  facet normal 0 0 1
    outer loop
      vertex 13.5729 19.2366 1
      vertex 15.0729 18.1468 1
      vertex 16.9271 18.1468 1
    endloop
  endfacet
  facet normal 0 0 1
    outer loop
      vertex 16.8 19.6144 1
      vertex 13.5729 19.2366 1
      vertex 18.4271 19.2366 1
    endloop
  endfacet
  facet normal 0 0 1
    outer loop
      vertex 18.4271 19.2366 1
      vertex 13.5729 19.2366 1
      vertex 16.9271 18.1468 1
    endloop
  endfacet
  facet normal 0 0 1
    outer loop
      vertex 13.5729 22.7634 1
      vertex 13.5729 19.2366 1
      vertex 15.0729 23.8532 1
    endloop
  endfacet
  facet normal 0 0 1
    outer loop
      vertex 13 21 1
      vertex 13.5729 19.2366 1
      vertex 13.5729 22.7634 1
    endloop
  endfacet
  facet normal 0 0 1
    outer loop
      vertex 16.8 22.3856 1
      vertex 17.6 21 1
      vertex 18.4271 22.7634 1
    endloop
  endfacet
  facet normal 0 0 1
    outer loop
      vertex 15.0729 23.8532 1
      vertex 13.5729 19.2366 1
      vertex 14.4 21 1
    endloop
  endfacet
  facet normal 0 0 1
    outer loop
      vertex 15.0729 23.8532 1
      vertex 15.2 22.3856 1
      vertex 16.9271 23.8532 1
    endloop
  endfacet
  facet normal 0 0 1
    outer loop
      vertex 15.0729 23.8532 1
      vertex 14.4 21 1
      vertex 15.2 22.3856 1
    endloop
  endfacet
  facet normal 0 0 1
    outer loop
      vertex 16.9271 23.8532 1
      vertex 16.8 22.3856 1
      vertex 18.4271 22.7634 1
    endloop
  endfacet
  facet normal 0 0 1
    outer loop
      vertex 15.2 22.3856 1
      vertex 16.8 22.3856 1
      vertex 16.9271 23.8532 1
    endloop
  endfacet
  facet normal 0 0 1
    outer loop
      vertex 18.4271 22.7634 1
      vertex 17.6 21 1
      vertex 19 21 1
    endloop
  endfacet
  facet normal 0 0 1
    outer loop
      vertex 19 21 1
      vertex 16.8 19.6144 1
      vertex 18.4271 19.2366 1
    endloop
  endfacet
  facet normal 0 0 1
    outer loop
      vertex 15.2 19.6144 1
      vertex 13.5729 19.2366 1
      vertex 16.8 19.6144 1
    endloop
  endfacet
  facet normal 0 0 1
    outer loop
      vertex 17.6 21 1
      vertex 16.8 19.6144 1
      vertex 19 21 1
    endloop
  endfacet
  facet normal 0 0 1
    outer loop
      vertex 15.2 19.6144 1
      vertex 14.4 21 1
      vertex 13.5729 19.2366 1
    endloop
  endfacet
  facet normal 0 0 1
    outer loop
      vertex 15.0729 18.1468 2
      vertex 4 4 2
      vertex 53 4 2
    endloop
  endfacet
  facet normal 0 0 1
    outer loop
      vertex 52.5 22 2
      vertex 4 38 2
      vertex 53 4 2
    endloop
  endfacet
  facet normal 0 0 1
    outer loop
      vertex 53 22 2
      vertex 52.5 22 2
      vertex 53 4 2
    endloop
  endfacet
  facet normal 0 0 1
    outer loop
      vertex 18.4271 22.7634 2
      vertex 19 21 2
      vertex 53 4 2
    endloop
  endfacet
  facet normal 0 0 1
    outer loop
      vertex 53 29 2
      vertex 4 38 2
      vertex 52.5 29 2
    endloop
  endfacet
  facet normal 0 0 1
    outer loop
      vertex 53 38 2
      vertex 4 38 2
      vertex 53 29 2
    endloop
  endfacet
  facet normal 0 0 1
    outer loop
      vertex 4 38 2
      vertex 4 4 2
      vertex 13.5729 19.2366 2
    endloop
  endfacet
  facet normal 0 0 1
    outer loop
      vertex 16.9271 18.1468 2
      vertex 15.0729 18.1468 2
      vertex 53 4 2
    endloop
  endfacet
  facet normal 0 0 1
    outer loop
      vertex 4 38 2
      vertex 13.5729 19.2366 2
      vertex 13 21 2
    endloop
  endfacet
  facet normal 0 0 1
    outer loop
      vertex 18.4271 19.2366 2
      vertex 16.9271 18.1468 2
      vertex 53 4 2
    endloop
  endfacet
  facet normal 0 0 1
    outer loop
      vertex 4 38 2
      vertex 13 21 2
      vertex 13.5729 22.7634 2
    endloop
  endfacet
  facet normal 0 0 1
    outer loop
      vertex 19 21 2
      vertex 18.4271 19.2366 2
      vertex 53 4 2
    endloop
  endfacet
  facet normal 0 0 1
    outer loop
      vertex 4 38 2
      vertex 13.5729 22.7634 2
      vertex 15.0729 23.8532 2
    endloop
  endfacet
  facet normal 0 0 1
    outer loop
      vertex 4 38 2
      vertex 16.9271 23.8532 2
      vertex 53 4 2
    endloop
  endfacet
  facet normal 0 0 1
    outer loop
      vertex 4 38 2
      vertex 15.0729 23.8532 2
      vertex 16.9271 23.8532 2
    endloop
  endfacet
  facet normal 0 0 1
    outer loop
      vertex 16.9271 23.8532 2
      vertex 18.4271 22.7634 2
      vertex 53 4 2
    endloop
  endfacet
  facet normal 0 0 1
    outer loop
      vertex 13.5729 19.2366 2
      vertex 4 4 2
      vertex 15.0729 18.1468 2
    endloop
  endfacet
  facet normal 0 0 1
    outer loop
      vertex 52.5 22 2
      vertex 52.5 29 2
      vertex 4 38 2
    endloop
  endfacet
  facet normal 0 -1 0
    outer loop
      vertex 4 38 6
      vertex 4 38 2
      vertex 53 38 2
    endloop
  endfacet
  facet normal 0 -1 0
    outer loop
      vertex 53 38 6
      vertex 4 38 6
      vertex 53 38 2
    endloop
  endfacet
  facet normal 0 0 1
    outer loop
      vertex 4 4 6
      vertex 2 2 6
      vertex 53 2 6
    endloop
  endfacet
  facet normal 0 0 1
    outer loop
      vertex 2 40 6
      vertex 2 2 6
      vertex 4 4 6
    endloop
  endfacet
  facet normal 0 0 1
    outer loop
      vertex 4 38 6
      vertex 53 38 6
      vertex 2 40 6
    endloop
  endfacet
  facet normal 0 0 1
    outer loop
      vertex 2 40 6
      vertex 4 4 6
      vertex 4 38 6
    endloop
  endfacet
  facet normal 0 0 1
    outer loop
      vertex 53 40 6
      vertex 2 40 6
      vertex 53 38 6
    endloop
  endfacet
  facet normal 0 0 1
    outer loop
      vertex 53 4 6
      vertex 4 4 6
      vertex 53 2 6
    endloop
  endfacet
  facet normal 0 1 0
    outer loop
      vertex 4 4 2
      vertex 4 4 6
      vertex 53 4 2
    endloop
  endfacet
  facet normal 0 1 0
    outer loop
      vertex 53 4 2
      vertex 4 4 6
      vertex 53 4 6
    endloop
  endfacet
  facet normal 0.587785 0.809017 0
    outer loop
      vertex 15.0729 18.1468 2
      vertex 15.0729 18.1468 1
      vertex 13.5729 19.2366 2
    endloop
  endfacet
  facet normal 0.587785 0.809017 0
    outer loop
      vertex 13.5729 19.2366 2
      vertex 15.0729 18.1468 1
      vertex 13.5729 19.2366 1
    endloop
  endfacet
  facet normal 0.951057 0.309017 0
    outer loop
      vertex 13 21 2
      vertex 13.5729 19.2366 2
      vertex 13.5729 19.2366 1
    endloop
  endfacet
  facet normal 0.951057 0.309017 0
    outer loop
      vertex 13 21 1
      vertex 13 21 2
      vertex 13.5729 19.2366 1
    endloop
  endfacet
  facet normal 0.951057 -0.309017 0
    outer loop
      vertex 13.5729 22.7634 1
      vertex 13.5729 22.7634 2
      vertex 13 21 2
    endloop
  endfacet
  facet normal 0.951057 -0.309017 0
    outer loop
      vertex 13 21 1
      vertex 13.5729 22.7634 1
      vertex 13 21 2
    endloop
  endfacet
  facet normal 0.587785 -0.809017 0
    outer loop
      vertex 15.0729 23.8532 1
      vertex 15.0729 23.8532 2
      vertex 13.5729 22.7634 2
    endloop
  endfacet
  facet normal 0.587785 -0.809017 0
    outer loop
      vertex 13.5729 22.7634 1
      vertex 15.0729 23.8532 1
      vertex 13.5729 22.7634 2
    endloop
  endfacet
  facet normal 0 -1 0
    outer loop
      vertex 16.9271 23.8532 1
      vertex 16.9271 23.8532 2
      vertex 15.0729 23.8532 2
    endloop
  endfacet
  facet normal 0 -1 0
    outer loop
      vertex 15.0729 23.8532 1
      vertex 16.9271 23.8532 1
      vertex 15.0729 23.8532 2
    endloop
  endfacet
  facet normal -0.587785 -0.809017 0
    outer loop
      vertex 18.4271 22.7634 1
      vertex 18.4271 22.7634 2
      vertex 16.9271 23.8532 2
    endloop
  endfacet
  facet normal -0.587785 -0.809017 0
    outer loop
      vertex 16.9271 23.8532 1
      vertex 18.4271 22.7634 1
      vertex 16.9271 23.8532 2
    endloop
  endfacet
  facet normal -0.951057 -0.309017 0
    outer loop
      vertex 19 21 2
      vertex 18.4271 22.7634 2
      vertex 19 21 1
    endloop
  endfacet
  facet normal -0.951057 -0.309017 0
    outer loop
      vertex 19 21 1
      vertex 18.4271 22.7634 2
      vertex 18.4271 22.7634 1
    endloop
  endfacet
  facet normal -0.951057 0.309017 0
    outer loop
      vertex 19 21 2
      vertex 19 21 1
      vertex 18.4271 19.2366 2
    endloop
  endfacet
  facet normal -0.951057 0.309017 0
    outer loop
      vertex 18.4271 19.2366 2
      vertex 19 21 1
      vertex 18.4271 19.2366 1
    endloop
  endfacet
  facet normal -0.587785 0.809017 0
    outer loop
      vertex 18.4271 19.2366 2
      vertex 18.4271 19.2366 1
      vertex 16.9271 18.1468 2
    endloop
  endfacet
  facet normal -0.587785 0.809017 0
    outer loop
      vertex 16.9271 18.1468 2
      vertex 18.4271 19.2366 1
      vertex 16.9271 18.1468 1
    endloop
  endfacet
  facet normal 0 1 0
    outer loop
      vertex 16.9271 18.1468 2
      vertex 16.9271 18.1468 1
      vertex 15.0729 18.1468 2
    endloop
  endfacet
  facet normal 0 1 0
    outer loop
      vertex 15.0729 18.1468 2
      vertex 16.9271 18.1468 1
      vertex 15.0729 18.1468 1
    endloop
  endfacet
  facet normal 1 0 0
    outer loop
      vertex 4 4 6
      vertex 4 4 2
      vertex 4 38 2
    endloop
  endfacet
  facet normal 1 0 0
    outer loop
      vertex 4 38 6
      vertex 4 4 6
      vertex 4 38 2
    endloop
  endfacet
endsolid OpenSCAD_Model
