solid OpenSCAD_Model
  facet normal -1 0 0
    outer loop
      vertex -3 -3 0
      vertex -3 -3 2
      vertex -3 3 0
    endloop
  endfacet
  facet normal -1 0 0
    outer loop
      vertex -3 3 0
      vertex -3 -3 2
      vertex -3 3 2
    endloop
  endfacet
  facet normal 0 -1 0
    outer loop
      vertex -3 -3 2
      vertex -3 -3 0
      vertex 3 -3 0
    endloop
  endfacet
  facet normal 0 -1 0
    outer loop
      vertex 3 -3 2
      vertex -3 -3 2
      vertex 3 -3 0
    endloop
  endfacet
  facet normal 0 0 -1
    outer loop
      vertex 0.944469 -1.4135 0
      vertex 1.20208 -1.20208 0
      vertex 3 -3 0
    endloop
  endfacet
  facet normal 0 0 -1
    outer loop
      vertex 0.650562 1.57059 0
      vertex -3 3 0
      vertex 3 3 0
    endloop
  endfacet
  facet normal 0 0 -1
    outer loop
      vertex -3 -3 0
      vertex -3 3 0
      vertex -1.7 0 0
    endloop
  endfacet
  facet normal 0 0 -1
    outer loop
      vertex -3 -3 0
      vertex -1.7 0 0
      vertex -1.66734 -0.331654 0
    endloop
  endfacet
  facet normal 0 0 -1
    outer loop
      vertex -3 -3 0
      vertex -1.66734 -0.331654 0
      vertex -1.57059 -0.650562 0
    endloop
  endfacet
  facet normal 0 0 -1
    outer loop
      vertex -3 -3 0
      vertex -1.57059 -0.650562 0
      vertex -1.4135 -0.944469 0
    endloop
  endfacet
  facet normal 0 0 -1
    outer loop
      vertex -3 -3 0
      vertex -1.4135 -0.944469 0
      vertex -1.20208 -1.20208 0
    endloop
  endfacet
  facet normal 0 0 -1
    outer loop
      vertex -3 -3 0
      vertex -1.20208 -1.20208 0
      vertex -0.944469 -1.4135 0
    endloop
  endfacet
  facet normal 0 0 -1
    outer loop
      vertex -3 -3 0
      vertex -0.944469 -1.4135 0
      vertex -0.650562 -1.57059 0
    endloop
  endfacet
  facet normal 0 0 -1
    outer loop
      vertex -3 -3 0
      vertex -0.650562 -1.57059 0
      vertex 3 -3 0
    endloop
  endfacet
  facet normal 0 0 -1
    outer loop
      vertex -0.650562 -1.57059 0
      vertex -0.331654 -1.66734 0
      vertex 3 -3 0
    endloop
  endfacet
  facet normal 0 0 -1
    outer loop
      vertex 0.331654 -1.66734 0
      vertex 3 -3 0
      vertex 0 -1.7 0
    endloop
  endfacet
  facet normal 0 0 -1
    outer loop
      vertex 0.650562 -1.57059 0
      vertex 3 -3 0
      vertex 0.331654 -1.66734 0
    endloop
  endfacet
  facet normal 0 0 -1
    outer loop
      vertex 0.944469 -1.4135 0
      vertex 3 -3 0
      vertex 0.650562 -1.57059 0
    endloop
  endfacet
  facet normal 0 0 -1
    outer loop
      vertex 1.7 0 0
      vertex 3 3 0
      vertex 1.66734 -0.331654 0
    endloop
  endfacet
  facet normal 0 0 -1
    outer loop
      vertex 3 -3 0
      vertex 1.20208 -1.20208 0
      vertex 1.4135 -0.944469 0
    endloop
  endfacet
  facet normal 0 0 -1
    outer loop
      vertex 3 -3 0
      vertex 1.4135 -0.944469 0
      vertex 1.57059 -0.650562 0
    endloop
  endfacet
  facet normal 0 0 -1
    outer loop
      vertex 3 -3 0
      vertex 1.57059 -0.650562 0
      vertex 3 3 0
    endloop
  endfacet
  facet normal 0 0 -1
    outer loop
      vertex 1.57059 -0.650562 0
      vertex 1.66734 -0.331654 0
      vertex 3 3 0
    endloop
  endfacet
  facet normal 0 0 -1
    outer loop
      vertex -1.4135 0.944469 0
      vertex -3 3 0
      vertex -1.20208 1.20208 0
    endloop
  endfacet
  facet normal 0 0 -1
    outer loop
      vertex 0 1.7 0
      vertex -3 3 0
      vertex 0.331654 1.66734 0
    endloop
  endfacet
  facet normal 0 0 -1
    outer loop
      vertex -0.944469 1.4135 0
      vertex -3 3 0
      vertex -0.650562 1.57059 0
    endloop
  endfacet
  facet normal 0 0 -1
    outer loop
      vertex 1.7 0 0
      vertex 1.66734 0.331654 0
      vertex 3 3 0
    endloop
  endfacet
  facet normal 0 0 -1
    outer loop
      vertex 1.66734 0.331654 0
      vertex 1.57059 0.650562 0
      vertex 3 3 0
    endloop
  endfacet
  facet normal 0 0 -1
    outer loop
      vertex -0.650562 1.57059 0
      vertex -3 3 0
      vertex -0.331654 1.66734 0
    endloop
  endfacet
  facet normal 0 0 -1
    outer loop
      vertex 1.57059 0.650562 0
      vertex 1.4135 0.944469 0
      vertex 3 3 0
    endloop
  endfacet
  facet normal 0 0 -1
    outer loop
      vertex -0.331654 1.66734 0
      vertex -3 3 0
      vertex 0 1.7 0
    endloop
  endfacet
  facet normal 0 0 -1
    outer loop
      vertex 1.4135 0.944469 0
      vertex 1.20208 1.20208 0
      vertex 3 3 0
    endloop
  endfacet
  facet normal 0 0 -1
    outer loop
      vertex 1.20208 1.20208 0
      vertex 0.944469 1.4135 0
      vertex 3 3 0
    endloop
  endfacet
  facet normal 0 0 -1
    outer loop
      vertex 0.331654 1.66734 0
      vertex -3 3 0
      vertex 0.650562 1.57059 0
    endloop
  endfacet
  facet normal 0 0 -1
    outer loop
      vertex 0.944469 1.4135 0
      vertex 0.650562 1.57059 0
      vertex 3 3 0
    endloop
  endfacet
  facet normal 0 0 -1
    outer loop
      vertex -1.20208 1.20208 0
      vertex -3 3 0
      vertex -0.944469 1.4135 0
    endloop
  endfacet
  facet normal 0 0 -1
    outer loop
      vertex -1.57059 0.650562 0
      vertex -3 3 0
      vertex -1.4135 0.944469 0
    endloop
  endfacet
  facet normal 0 0 -1
    outer loop
      vertex -1.66734 0.331654 0
      vertex -3 3 0
      vertex -1.57059 0.650562 0
    endloop
  endfacet
  facet normal 0 0 -1
    outer loop
      vertex -1.7 0 0
      vertex -3 3 0
      vertex -1.66734 0.331654 0
    endloop
  endfacet
  facet normal 0 0 -1
    outer loop
      vertex 0 -1.7 0
      vertex 3 -3 0
      vertex -0.331654 -1.66734 0
    endloop
  endfacet
  facet normal 0 1 0
    outer loop
      vertex -3 3 0
      vertex -3 3 2
      vertex 3 3 0
    endloop
  endfacet
  facet normal 0 1 0
    outer loop
      vertex 3 3 0
      vertex -3 3 2
      vertex 3 3 2
    endloop
  endfacet
  facet normal 0 0 1
    outer loop
      vertex 0.487726 -2.45196 2
      vertex -3 -3 2
      vertex 3 -3 2
    endloop
  endfacet
  facet normal 0 0 1
    outer loop
      vertex -1.76777 1.76777 2
      vertex -3 3 2
      vertex -2.07867 1.38893 2
    endloop
  endfacet
  facet normal 0 0 1
    outer loop
      vertex 0 -2.5 2
      vertex -0.487726 -2.45196 2
      vertex -3 -3 2
    endloop
  endfacet
  facet normal 0 0 1
    outer loop
      vertex -3 3 2
      vertex -3 -3 2
      vertex -2.45196 -0.487726 2
    endloop
  endfacet
  facet normal 0 0 1
    outer loop
      vertex -3 3 2
      vertex -2.45196 -0.487726 2
      vertex -2.5 0 2
    endloop
  endfacet
  facet normal 0 0 1
    outer loop
      vertex -3 3 2
      vertex -2.5 0 2
      vertex -2.45196 0.487726 2
    endloop
  endfacet
  facet normal 0 0 1
    outer loop
      vertex 1.38893 -2.07867 2
      vertex 0.956709 -2.3097 2
      vertex 3 -3 2
    endloop
  endfacet
  facet normal 0 0 1
    outer loop
      vertex -3 3 2
      vertex -2.45196 0.487726 2
      vertex -2.3097 0.956709 2
    endloop
  endfacet
  facet normal 0 0 1
    outer loop
      vertex -3 3 2
      vertex -2.3097 0.956709 2
      vertex -2.07867 1.38893 2
    endloop
  endfacet
  facet normal 0 0 1
    outer loop
      vertex -1.38893 2.07867 2
      vertex -3 3 2
      vertex -1.76777 1.76777 2
    endloop
  endfacet
  facet normal 0 0 1
    outer loop
      vertex -0.956709 2.3097 2
      vertex -3 3 2
      vertex -1.38893 2.07867 2
    endloop
  endfacet
  facet normal 0 0 1
    outer loop
      vertex 0.487726 2.45196 2
      vertex 0.956709 2.3097 2
      vertex 3 3 2
    endloop
  endfacet
  facet normal 0 0 1
    outer loop
      vertex -0.487726 2.45196 2
      vertex -3 3 2
      vertex -0.956709 2.3097 2
    endloop
  endfacet
  facet normal 0 0 1
    outer loop
      vertex 3 3 2
      vertex -3 3 2
      vertex -0.487726 2.45196 2
    endloop
  endfacet
  facet normal 0 0 1
    outer loop
      vertex 2.5 0 2
      vertex 2.45196 -0.487726 2
      vertex 3 -3 2
    endloop
  endfacet
  facet normal 0 0 1
    outer loop
      vertex 3 3 2
      vertex -0.487726 2.45196 2
      vertex 0 2.5 2
    endloop
  endfacet
  facet normal 0 0 1
    outer loop
      vertex 2.3097 -0.956709 2
      vertex 2.07867 -1.38893 2
      vertex 3 -3 2
    endloop
  endfacet
  facet normal 0 0 1
    outer loop
      vertex 3 3 2
      vertex 0.956709 2.3097 2
      vertex 1.38893 2.07867 2
    endloop
  endfacet
  facet normal 0 0 1
    outer loop
      vertex 3 3 2
      vertex 1.38893 2.07867 2
      vertex 1.76777 1.76777 2
    endloop
  endfacet
  facet normal 0 0 1
    outer loop
      vertex 3 3 2
      vertex 1.76777 1.76777 2
      vertex 2.07867 1.38893 2
    endloop
  endfacet
  facet normal 0 0 1
    outer loop
      vertex 2.45196 -0.487726 2
      vertex 2.3097 -0.956709 2
      vertex 3 -3 2
    endloop
  endfacet
  facet normal 0 0 1
    outer loop
      vertex 3 3 2
      vertex 2.07867 1.38893 2
      vertex 2.3097 0.956709 2
    endloop
  endfacet
  facet normal 0 0 1
    outer loop
      vertex 3 3 2
      vertex 2.45196 0.487726 2
      vertex 3 -3 2
    endloop
  endfacet
  facet normal 0 0 1
    outer loop
      vertex 3 3 2
      vertex 2.3097 0.956709 2
      vertex 2.45196 0.487726 2
    endloop
  endfacet
  facet normal 0 0 1
    outer loop
      vertex 2.45196 0.487726 2
      vertex 2.5 0 2
      vertex 3 -3 2
    endloop
  endfacet
  facet normal 0 0 1
    outer loop
      vertex 2.07867 -1.38893 2
      vertex 1.76777 -1.76777 2
      vertex 3 -3 2
    endloop
  endfacet
  facet normal 0 0 1
    outer loop
      vertex 0.956709 -2.3097 2
      vertex 0.487726 -2.45196 2
      vertex 3 -3 2
    endloop
  endfacet
  facet normal 0 0 1
    outer loop
      vertex 0 -2.5 2
      vertex -3 -3 2
      vertex 0.487726 -2.45196 2
    endloop
  endfacet
  facet normal 0 0 1
    outer loop
      vertex -0.956709 -2.3097 2
      vertex -3 -3 2
      vertex -0.487726 -2.45196 2
    endloop
  endfacet
  facet normal 0 0 1
    outer loop
      vertex -1.38893 -2.07867 2
      vertex -3 -3 2
      vertex -0.956709 -2.3097 2
    endloop
  endfacet
  facet normal 0 0 1
    outer loop
      vertex -1.76777 -1.76777 2
      vertex -3 -3 2
      vertex -1.38893 -2.07867 2
    endloop
  endfacet
  facet normal 0 0 1
    outer loop
      vertex -2.07867 -1.38893 2
      vertex -3 -3 2
      vertex -1.76777 -1.76777 2
    endloop
  endfacet
  facet normal 0 0 1
    outer loop
      vertex -2.3097 -0.956709 2
      vertex -3 -3 2
      vertex -2.07867 -1.38893 2
    endloop
  endfacet
  facet normal 0 0 1
    outer loop
      vertex -2.45196 -0.487726 2
      vertex -3 -3 2
      vertex -2.3097 -0.956709 2
    endloop
  endfacet
  facet normal 0 0 1
    outer loop
      vertex 0 2.5 2
      vertex 0.487726 2.45196 2
      vertex 3 3 2
    endloop
  endfacet
  facet normal 0 0 1
    outer loop
      vertex 1.76777 -1.76777 2
      vertex 1.38893 -2.07867 2
      vertex 3 -3 2
    endloop
  endfacet
  facet normal 1 0 0
    outer loop
      vertex 3 -3 2
      vertex 3 -3 0
      vertex 3 3 0
    endloop
  endfacet
  facet normal 1 0 0
    outer loop
      vertex 3 3 2
      vertex 3 -3 2
      vertex 3 3 0
    endloop
  endfacet
  facet normal 0.995185 0.0980169 0
    outer loop
      vertex -1.7 0 1
      vertex -1.66734 -0.331654 1
      vertex -1.66734 -0.331654 0
    endloop
  endfacet
  facet normal 0.995185 0.0980169 0
    outer loop
      vertex -1.7 0 0
      vertex -1.7 0 1
      vertex -1.66734 -0.331654 0
    endloop
  endfacet
  facet normal 0.995185 -0.0980169 0
    outer loop
      vertex -1.66734 0.331654 0
      vertex -1.66734 0.331654 1
      vertex -1.7 0 1
    endloop
  endfacet
  facet normal 0.995185 -0.0980169 0
    outer loop
      vertex -1.7 0 0
      vertex -1.66734 0.331654 0
      vertex -1.7 0 1
    endloop
  endfacet
  facet normal 0.95694 -0.290286 0
    outer loop
      vertex -1.57059 0.650562 0
      vertex -1.57059 0.650562 1
      vertex -1.66734 0.331654 1
    endloop
  endfacet
  facet normal 0.95694 -0.290286 0
    outer loop
      vertex -1.66734 0.331654 0
      vertex -1.57059 0.650562 0
      vertex -1.66734 0.331654 1
    endloop
  endfacet
  facet normal 0.881921 -0.471398 0
    outer loop
      vertex -1.4135 0.944469 0
      vertex -1.4135 0.944469 1
      vertex -1.57059 0.650562 1
    endloop
  endfacet
  facet normal 0.881921 -0.471398 0
    outer loop
      vertex -1.57059 0.650562 0
      vertex -1.4135 0.944469 0
      vertex -1.57059 0.650562 1
    endloop
  endfacet
  facet normal 0.773013 -0.634391 0
    outer loop
      vertex -1.20208 1.20208 0
      vertex -1.20208 1.20208 1
      vertex -1.4135 0.944469 1
    endloop
  endfacet
  facet normal 0.773013 -0.634391 0
    outer loop
      vertex -1.4135 0.944469 0
      vertex -1.20208 1.20208 0
      vertex -1.4135 0.944469 1
    endloop
  endfacet
  facet normal 0.634391 -0.773013 0
    outer loop
      vertex -0.944469 1.4135 0
      vertex -0.944469 1.4135 1
      vertex -1.20208 1.20208 1
    endloop
  endfacet
  facet normal 0.634391 -0.773013 0
    outer loop
      vertex -1.20208 1.20208 0
      vertex -0.944469 1.4135 0
      vertex -1.20208 1.20208 1
    endloop
  endfacet
  facet normal 0.471398 -0.881921 0
    outer loop
      vertex -0.650562 1.57059 0
      vertex -0.650562 1.57059 1
      vertex -0.944469 1.4135 1
    endloop
  endfacet
  facet normal 0.471398 -0.881921 0
    outer loop
      vertex -0.944469 1.4135 0
      vertex -0.650562 1.57059 0
      vertex -0.944469 1.4135 1
    endloop
  endfacet
  facet normal 0.290286 -0.95694 0
    outer loop
      vertex -0.331654 1.66734 0
      vertex -0.331654 1.66734 1
      vertex -0.650562 1.57059 1
    endloop
  endfacet
  facet normal 0.290286 -0.95694 0
    outer loop
      vertex -0.650562 1.57059 0
      vertex -0.331654 1.66734 0
      vertex -0.650562 1.57059 1
    endloop
  endfacet
  facet normal 0.0980169 -0.995185 0
    outer loop
      vertex 0 1.7 0
      vertex 0 1.7 1
      vertex -0.331654 1.66734 1
    endloop
  endfacet
  facet normal 0.0980169 -0.995185 0
    outer loop
      vertex -0.331654 1.66734 0
      vertex 0 1.7 0
      vertex -0.331654 1.66734 1
    endloop
  endfacet
  facet normal -0.0980169 -0.995185 0
    outer loop
      vertex 0.331654 1.66734 0
      vertex 0.331654 1.66734 1
      vertex 0 1.7 1
    endloop
  endfacet
  facet normal -0.0980169 -0.995185 0
    outer loop
      vertex 0 1.7 0
      vertex 0.331654 1.66734 0
      vertex 0 1.7 1
    endloop
  endfacet
  facet normal -0.290286 -0.95694 0
    outer loop
      vertex 0.650562 1.57059 0
      vertex 0.650562 1.57059 1
      vertex 0.331654 1.66734 1
    endloop
  endfacet
  facet normal -0.290286 -0.95694 0
    outer loop
      vertex 0.331654 1.66734 0
      vertex 0.650562 1.57059 0
      vertex 0.331654 1.66734 1
    endloop
  endfacet
  facet normal -0.471398 -0.881921 0
    outer loop
      vertex 0.944469 1.4135 0
      vertex 0.944469 1.4135 1
      vertex 0.650562 1.57059 1
    endloop
  endfacet
  facet normal -0.471398 -0.881921 0
    outer loop
      vertex 0.650562 1.57059 0
      vertex 0.944469 1.4135 0
      vertex 0.650562 1.57059 1
    endloop
  endfacet
  facet normal -0.634391 -0.773013 0
    outer loop
      vertex 1.20208 1.20208 0
      vertex 1.20208 1.20208 1
      vertex 0.944469 1.4135 1
    endloop
  endfacet
  facet normal -0.634391 -0.773013 0
    outer loop
      vertex 0.944469 1.4135 0
      vertex 1.20208 1.20208 0
      vertex 0.944469 1.4135 1
    endloop
  endfacet
  facet normal -0.773013 -0.634391 0
    outer loop
      vertex 1.4135 0.944469 1
      vertex 1.20208 1.20208 1
      vertex 1.4135 0.944469 0
    endloop
  endfacet
  facet normal -0.773013 -0.634391 0
    outer loop
      vertex 1.4135 0.944469 0
      vertex 1.20208 1.20208 1
      vertex 1.20208 1.20208 0
    endloop
  endfacet
  facet normal -0.881921 -0.471398 0
    outer loop
      vertex 1.57059 0.650562 1
      vertex 1.4135 0.944469 1
      vertex 1.57059 0.650562 0
    endloop
  endfacet
  facet normal -0.881921 -0.471398 0
    outer loop
      vertex 1.57059 0.650562 0
      vertex 1.4135 0.944469 1
      vertex 1.4135 0.944469 0
    endloop
  endfacet
  facet normal -0.95694 -0.290286 0
    outer loop
      vertex 1.66734 0.331654 1
      vertex 1.57059 0.650562 1
      vertex 1.66734 0.331654 0
    endloop
  endfacet
  facet normal -0.95694 -0.290286 0
    outer loop
      vertex 1.66734 0.331654 0
      vertex 1.57059 0.650562 1
      vertex 1.57059 0.650562 0
    endloop
  endfacet
  facet normal -0.995185 -0.0980169 0
    outer loop
      vertex 1.7 0 1
      vertex 1.66734 0.331654 1
      vertex 1.7 0 0
    endloop
  endfacet
  facet normal -0.995185 -0.0980169 0
    outer loop
      vertex 1.7 0 0
      vertex 1.66734 0.331654 1
      vertex 1.66734 0.331654 0
    endloop
  endfacet
  facet normal -0.995185 0.0980169 0
    outer loop
      vertex 1.7 0 1
      vertex 1.7 0 0
      vertex 1.66734 -0.331654 1
    endloop
  endfacet
  facet normal -0.995185 0.0980169 0
    outer loop
      vertex 1.66734 -0.331654 1
      vertex 1.7 0 0
      vertex 1.66734 -0.331654 0
    endloop
  endfacet
  facet normal -0.95694 0.290286 0
    outer loop
      vertex 1.66734 -0.331654 1
      vertex 1.66734 -0.331654 0
      vertex 1.57059 -0.650562 1
    endloop
  endfacet
  facet normal -0.95694 0.290286 0
    outer loop
      vertex 1.57059 -0.650562 1
      vertex 1.66734 -0.331654 0
      vertex 1.57059 -0.650562 0
    endloop
  endfacet
  facet normal -0.881921 0.471398 0
    outer loop
      vertex 1.57059 -0.650562 1
      vertex 1.57059 -0.650562 0
      vertex 1.4135 -0.944469 1
    endloop
  endfacet
  facet normal -0.881921 0.471398 0
    outer loop
      vertex 1.4135 -0.944469 1
      vertex 1.57059 -0.650562 0
      vertex 1.4135 -0.944469 0
    endloop
  endfacet
  facet normal -0.773013 0.634391 0
    outer loop
      vertex 1.4135 -0.944469 1
      vertex 1.4135 -0.944469 0
      vertex 1.20208 -1.20208 1
    endloop
  endfacet
  facet normal -0.773013 0.634391 0
    outer loop
      vertex 1.20208 -1.20208 1
      vertex 1.4135 -0.944469 0
      vertex 1.20208 -1.20208 0
    endloop
  endfacet
  facet normal -0.634391 0.773013 0
    outer loop
      vertex 1.20208 -1.20208 1
      vertex 1.20208 -1.20208 0
      vertex 0.944469 -1.4135 1
    endloop
  endfacet
  facet normal -0.634391 0.773013 0
    outer loop
      vertex 0.944469 -1.4135 1
      vertex 1.20208 -1.20208 0
      vertex 0.944469 -1.4135 0
    endloop
  endfacet
  facet normal -0.471398 0.881921 0
    outer loop
      vertex 0.944469 -1.4135 1
      vertex 0.944469 -1.4135 0
      vertex 0.650562 -1.57059 1
    endloop
  endfacet
  facet normal -0.471398 0.881921 0
    outer loop
      vertex 0.650562 -1.57059 1
      vertex 0.944469 -1.4135 0
      vertex 0.650562 -1.57059 0
    endloop
  endfacet
  facet normal -0.290286 0.95694 0
    outer loop
      vertex 0.650562 -1.57059 1
      vertex 0.650562 -1.57059 0
      vertex 0.331654 -1.66734 1
    endloop
  endfacet
  facet normal -0.290286 0.95694 0
    outer loop
      vertex 0.331654 -1.66734 1
      vertex 0.650562 -1.57059 0
      vertex 0.331654 -1.66734 0
    endloop
  endfacet
  facet normal -0.0980169 0.995185 0
    outer loop
      vertex 0.331654 -1.66734 1
      vertex 0.331654 -1.66734 0
      vertex 0 -1.7 1
    endloop
  endfacet
  facet normal -0.0980169 0.995185 0
    outer loop
      vertex 0 -1.7 1
      vertex 0.331654 -1.66734 0
      vertex 0 -1.7 0
    endloop
  endfacet
  facet normal 0.0980169 0.995185 0
    outer loop
      vertex 0 -1.7 1
      vertex 0 -1.7 0
      vertex -0.331654 -1.66734 1
    endloop
  endfacet
  facet normal 0.0980169 0.995185 0
    outer loop
      vertex -0.331654 -1.66734 1
      vertex 0 -1.7 0
      vertex -0.331654 -1.66734 0
    endloop
  endfacet
  facet normal 0.290286 0.95694 0
    outer loop
      vertex -0.331654 -1.66734 1
      vertex -0.331654 -1.66734 0
      vertex -0.650562 -1.57059 1
    endloop
  endfacet
  facet normal 0.290286 0.95694 0
    outer loop
      vertex -0.650562 -1.57059 1
      vertex -0.331654 -1.66734 0
      vertex -0.650562 -1.57059 0
    endloop
  endfacet
  facet normal 0.471398 0.881921 0
    outer loop
      vertex -0.650562 -1.57059 1
      vertex -0.650562 -1.57059 0
      vertex -0.944469 -1.4135 1
    endloop
  endfacet
  facet normal 0.471398 0.881921 0
    outer loop
      vertex -0.944469 -1.4135 1
      vertex -0.650562 -1.57059 0
      vertex -0.944469 -1.4135 0
    endloop
  endfacet
  facet normal 0.634391 0.773013 0
    outer loop
      vertex -0.944469 -1.4135 1
      vertex -0.944469 -1.4135 0
      vertex -1.20208 -1.20208 1
    endloop
  endfacet
  facet normal 0.634391 0.773013 0
    outer loop
      vertex -1.20208 -1.20208 1
      vertex -0.944469 -1.4135 0
      vertex -1.20208 -1.20208 0
    endloop
  endfacet
  facet normal 0.773013 0.634391 0
    outer loop
      vertex -1.4135 -0.944469 1
      vertex -1.20208 -1.20208 1
      vertex -1.20208 -1.20208 0
    endloop
  endfacet
  facet normal 0.773013 0.634391 0
    outer loop
      vertex -1.4135 -0.944469 0
      vertex -1.4135 -0.944469 1
      vertex -1.20208 -1.20208 0
    endloop
  endfacet
  facet normal 0.881921 0.471398 0
    outer loop
      vertex -1.57059 -0.650562 1
      vertex -1.4135 -0.944469 1
      vertex -1.4135 -0.944469 0
    endloop
  endfacet
  facet normal 0.881921 0.471398 0
    outer loop
      vertex -1.57059 -0.650562 0
      vertex -1.57059 -0.650562 1
      vertex -1.4135 -0.944469 0
    endloop
  endfacet
  facet normal 0.95694 0.290286 0
    outer loop
      vertex -1.66734 -0.331654 1
      vertex -1.57059 -0.650562 1
      vertex -1.57059 -0.650562 0
    endloop
  endfacet
  facet normal 0.95694 0.290286 0
    outer loop
      vertex -1.66734 -0.331654 0
      vertex -1.66734 -0.331654 1
      vertex -1.57059 -0.650562 0
    endloop
  endfacet
  facet normal -0.995185 -0.0980175 0
    outer loop
      vertex -2.5 0 2
      vertex -2.45196 -0.487726 2
      vertex -2.5 0 5
    endloop
  endfacet
  facet normal -0.995185 -0.0980175 0
    outer loop
      vertex -2.5 0 5
      vertex -2.45196 -0.487726 2
      vertex -2.45196 -0.487726 5
    endloop
  endfacet
  facet normal -0.956941 -0.290284 0
    outer loop
      vertex -2.45196 -0.487726 2
      vertex -2.3097 -0.956709 2
      vertex -2.45196 -0.487726 5
    endloop
  endfacet
  facet normal -0.956941 -0.290284 0
    outer loop
      vertex -2.45196 -0.487726 5
      vertex -2.3097 -0.956709 2
      vertex -2.3097 -0.956709 5
    endloop
  endfacet
  facet normal -0.881921 -0.471397 0
    outer loop
      vertex -2.3097 -0.956709 2
      vertex -2.07867 -1.38893 2
      vertex -2.3097 -0.956709 5
    endloop
  endfacet
  facet normal -0.881921 -0.471397 0
    outer loop
      vertex -2.3097 -0.956709 5
      vertex -2.07867 -1.38893 2
      vertex -2.07867 -1.38893 5
    endloop
  endfacet
  facet normal -0.77301 -0.634394 0
    outer loop
      vertex -2.07867 -1.38893 2
      vertex -1.76777 -1.76777 2
      vertex -2.07867 -1.38893 5
    endloop
  endfacet
  facet normal -0.77301 -0.634394 0
    outer loop
      vertex -2.07867 -1.38893 5
      vertex -1.76777 -1.76777 2
      vertex -1.76777 -1.76777 5
    endloop
  endfacet
  facet normal -0.634394 -0.77301 0
    outer loop
      vertex -1.76777 -1.76777 5
      vertex -1.76777 -1.76777 2
      vertex -1.38893 -2.07867 2
    endloop
  endfacet
  facet normal -0.634394 -0.77301 0
    outer loop
      vertex -1.38893 -2.07867 5
      vertex -1.76777 -1.76777 5
      vertex -1.38893 -2.07867 2
    endloop
  endfacet
  facet normal -0.471397 -0.881921 0
    outer loop
      vertex -1.38893 -2.07867 5
      vertex -1.38893 -2.07867 2
      vertex -0.956709 -2.3097 2
    endloop
  endfacet
  facet normal -0.471397 -0.881921 0
    outer loop
      vertex -0.956709 -2.3097 5
      vertex -1.38893 -2.07867 5
      vertex -0.956709 -2.3097 2
    endloop
  endfacet
  facet normal -0.290284 -0.956941 0
    outer loop
      vertex -0.956709 -2.3097 5
      vertex -0.956709 -2.3097 2
      vertex -0.487726 -2.45196 2
    endloop
  endfacet
  facet normal -0.290284 -0.956941 0
    outer loop
      vertex -0.487726 -2.45196 5
      vertex -0.956709 -2.3097 5
      vertex -0.487726 -2.45196 2
    endloop
  endfacet
  facet normal -0.0980175 -0.995185 0
    outer loop
      vertex -0.487726 -2.45196 5
      vertex -0.487726 -2.45196 2
      vertex 0 -2.5 2
    endloop
  endfacet
  facet normal -0.0980175 -0.995185 0
    outer loop
      vertex 0 -2.5 5
      vertex -0.487726 -2.45196 5
      vertex 0 -2.5 2
    endloop
  endfacet
  facet normal 0.0980175 -0.995185 0
    outer loop
      vertex 0 -2.5 5
      vertex 0 -2.5 2
      vertex 0.487726 -2.45196 2
    endloop
  endfacet
  facet normal 0.0980175 -0.995185 0
    outer loop
      vertex 0.487726 -2.45196 5
      vertex 0 -2.5 5
      vertex 0.487726 -2.45196 2
    endloop
  endfacet
  facet normal 0.290284 -0.956941 0
    outer loop
      vertex 0.487726 -2.45196 5
      vertex 0.487726 -2.45196 2
      vertex 0.956709 -2.3097 2
    endloop
  endfacet
  facet normal 0.290284 -0.956941 0
    outer loop
      vertex 0.956709 -2.3097 5
      vertex 0.487726 -2.45196 5
      vertex 0.956709 -2.3097 2
    endloop
  endfacet
  facet normal 0.471397 -0.881921 0
    outer loop
      vertex 0.956709 -2.3097 5
      vertex 0.956709 -2.3097 2
      vertex 1.38893 -2.07867 2
    endloop
  endfacet
  facet normal 0.471397 -0.881921 0
    outer loop
      vertex 1.38893 -2.07867 5
      vertex 0.956709 -2.3097 5
      vertex 1.38893 -2.07867 2
    endloop
  endfacet
  facet normal 0.634394 -0.77301 0
    outer loop
      vertex 1.38893 -2.07867 5
      vertex 1.38893 -2.07867 2
      vertex 1.76777 -1.76777 2
    endloop
  endfacet
  facet normal 0.634394 -0.77301 0
    outer loop
      vertex 1.76777 -1.76777 5
      vertex 1.38893 -2.07867 5
      vertex 1.76777 -1.76777 2
    endloop
  endfacet
  facet normal 0.77301 -0.634394 0
    outer loop
      vertex 1.76777 -1.76777 5
      vertex 1.76777 -1.76777 2
      vertex 2.07867 -1.38893 2
    endloop
  endfacet
  facet normal 0.77301 -0.634394 0
    outer loop
      vertex 2.07867 -1.38893 5
      vertex 1.76777 -1.76777 5
      vertex 2.07867 -1.38893 2
    endloop
  endfacet
  facet normal 0.881921 -0.471397 0
    outer loop
      vertex 2.07867 -1.38893 5
      vertex 2.07867 -1.38893 2
      vertex 2.3097 -0.956709 2
    endloop
  endfacet
  facet normal 0.881921 -0.471397 0
    outer loop
      vertex 2.3097 -0.956709 5
      vertex 2.07867 -1.38893 5
      vertex 2.3097 -0.956709 2
    endloop
  endfacet
  facet normal 0.956941 -0.290284 0
    outer loop
      vertex 2.3097 -0.956709 5
      vertex 2.3097 -0.956709 2
      vertex 2.45196 -0.487726 2
    endloop
  endfacet
  facet normal 0.956941 -0.290284 0
    outer loop
      vertex 2.45196 -0.487726 5
      vertex 2.3097 -0.956709 5
      vertex 2.45196 -0.487726 2
    endloop
  endfacet
  facet normal 0.995185 -0.0980175 0
    outer loop
      vertex 2.45196 -0.487726 5
      vertex 2.45196 -0.487726 2
      vertex 2.5 0 2
    endloop
  endfacet
  facet normal 0.995185 -0.0980175 0
    outer loop
      vertex 2.5 0 5
      vertex 2.45196 -0.487726 5
      vertex 2.5 0 2
    endloop
  endfacet
  facet normal 0.995185 0.0980175 0
    outer loop
      vertex 2.5 0 2
      vertex 2.45196 0.487726 2
      vertex 2.45196 0.487726 5
    endloop
  endfacet
  facet normal 0.995185 0.0980175 0
    outer loop
      vertex 2.5 0 5
      vertex 2.5 0 2
      vertex 2.45196 0.487726 5
    endloop
  endfacet
  facet normal 0.956941 0.290284 0
    outer loop
      vertex 2.45196 0.487726 2
      vertex 2.3097 0.956709 2
      vertex 2.3097 0.956709 5
    endloop
  endfacet
  facet normal 0.956941 0.290284 0
    outer loop
      vertex 2.45196 0.487726 5
      vertex 2.45196 0.487726 2
      vertex 2.3097 0.956709 5
    endloop
  endfacet
  facet normal 0.881921 0.471397 0
    outer loop
      vertex 2.3097 0.956709 2
      vertex 2.07867 1.38893 2
      vertex 2.07867 1.38893 5
    endloop
  endfacet
  facet normal 0.881921 0.471397 0
    outer loop
      vertex 2.3097 0.956709 5
      vertex 2.3097 0.956709 2
      vertex 2.07867 1.38893 5
    endloop
  endfacet
  facet normal 0.77301 0.634394 0
    outer loop
      vertex 2.07867 1.38893 2
      vertex 1.76777 1.76777 2
      vertex 1.76777 1.76777 5
    endloop
  endfacet
  facet normal 0.77301 0.634394 0
    outer loop
      vertex 2.07867 1.38893 5
      vertex 2.07867 1.38893 2
      vertex 1.76777 1.76777 5
    endloop
  endfacet
  facet normal 0.634394 0.77301 0
    outer loop
      vertex 1.38893 2.07867 2
      vertex 1.38893 2.07867 5
      vertex 1.76777 1.76777 2
    endloop
  endfacet
  facet normal 0.634394 0.77301 0
    outer loop
      vertex 1.76777 1.76777 2
      vertex 1.38893 2.07867 5
      vertex 1.76777 1.76777 5
    endloop
  endfacet
  facet normal 0.471397 0.881921 0
    outer loop
      vertex 0.956709 2.3097 2
      vertex 0.956709 2.3097 5
      vertex 1.38893 2.07867 2
    endloop
  endfacet
  facet normal 0.471397 0.881921 0
    outer loop
      vertex 1.38893 2.07867 2
      vertex 0.956709 2.3097 5
      vertex 1.38893 2.07867 5
    endloop
  endfacet
  facet normal 0.290284 0.956941 0
    outer loop
      vertex 0.487726 2.45196 2
      vertex 0.487726 2.45196 5
      vertex 0.956709 2.3097 2
    endloop
  endfacet
  facet normal 0.290284 0.956941 0
    outer loop
      vertex 0.956709 2.3097 2
      vertex 0.487726 2.45196 5
      vertex 0.956709 2.3097 5
    endloop
  endfacet
  facet normal 0.0980175 0.995185 0
    outer loop
      vertex 0 2.5 2
      vertex 0 2.5 5
      vertex 0.487726 2.45196 2
    endloop
  endfacet
  facet normal 0.0980175 0.995185 0
    outer loop
      vertex 0.487726 2.45196 2
      vertex 0 2.5 5
      vertex 0.487726 2.45196 5
    endloop
  endfacet
  facet normal -0.0980175 0.995185 0
    outer loop
      vertex -0.487726 2.45196 2
      vertex -0.487726 2.45196 5
      vertex 0 2.5 2
    endloop
  endfacet
  facet normal -0.0980175 0.995185 0
    outer loop
      vertex 0 2.5 2
      vertex -0.487726 2.45196 5
      vertex 0 2.5 5
    endloop
  endfacet
  facet normal -0.290284 0.956941 0
    outer loop
      vertex -0.956709 2.3097 2
      vertex -0.956709 2.3097 5
      vertex -0.487726 2.45196 2
    endloop
  endfacet
  facet normal -0.290284 0.956941 0
    outer loop
      vertex -0.487726 2.45196 2
      vertex -0.956709 2.3097 5
      vertex -0.487726 2.45196 5
    endloop
  endfacet
  facet normal -0.471397 0.881921 0
    outer loop
      vertex -1.38893 2.07867 2
      vertex -1.38893 2.07867 5
      vertex -0.956709 2.3097 2
    endloop
  endfacet
  facet normal -0.471397 0.881921 0
    outer loop
      vertex -0.956709 2.3097 2
      vertex -1.38893 2.07867 5
      vertex -0.956709 2.3097 5
    endloop
  endfacet
  facet normal -0.634394 0.77301 0
    outer loop
      vertex -1.76777 1.76777 2
      vertex -1.76777 1.76777 5
      vertex -1.38893 2.07867 2
    endloop
  endfacet
  facet normal -0.634394 0.77301 0
    outer loop
      vertex -1.38893 2.07867 2
      vertex -1.76777 1.76777 5
      vertex -1.38893 2.07867 5
    endloop
  endfacet
  facet normal -0.77301 0.634394 0
    outer loop
      vertex -2.07867 1.38893 2
      vertex -2.07867 1.38893 5
      vertex -1.76777 1.76777 2
    endloop
  endfacet
  facet normal -0.77301 0.634394 0
    outer loop
      vertex -1.76777 1.76777 2
      vertex -2.07867 1.38893 5
      vertex -1.76777 1.76777 5
    endloop
  endfacet
  facet normal -0.881921 0.471397 0
    outer loop
      vertex -2.3097 0.956709 2
      vertex -2.3097 0.956709 5
      vertex -2.07867 1.38893 2
    endloop
  endfacet
  facet normal -0.881921 0.471397 0
    outer loop
      vertex -2.07867 1.38893 2
      vertex -2.3097 0.956709 5
      vertex -2.07867 1.38893 5
    endloop
  endfacet
  facet normal -0.956941 0.290284 0
    outer loop
      vertex -2.45196 0.487726 2
      vertex -2.45196 0.487726 5
      vertex -2.3097 0.956709 2
    endloop
  endfacet
  facet normal -0.956941 0.290284 0
    outer loop
      vertex -2.3097 0.956709 2
      vertex -2.45196 0.487726 5
      vertex -2.3097 0.956709 5
    endloop
  endfacet
  facet normal -0.995185 0.0980175 0
    outer loop
      vertex -2.5 0 2
      vertex -2.5 0 5
      vertex -2.45196 0.487726 2
    endloop
  endfacet
  facet normal -0.995185 0.0980175 0
    outer loop
      vertex -2.45196 0.487726 2
      vertex -2.5 0 5
      vertex -2.45196 0.487726 5
    endloop
  endfacet
  facet normal 0 0 -1
    outer loop
      vertex -1.57059 0.650562 1
      vertex -1.4135 0.944469 1
      vertex -1.66734 0.331654 1
    endloop
  endfacet
  facet normal 0 0 -1
    outer loop
      vertex -1.66734 0.331654 1
      vertex -1.4135 0.944469 1
      vertex -1.20208 1.20208 1
    endloop
  endfacet
  facet normal 0 0 -1
    outer loop
      vertex -1.66734 0.331654 1
      vertex -1.20208 1.20208 1
      vertex -0.944469 1.4135 1
    endloop
  endfacet
  facet normal 0 0 -1
    outer loop
      vertex -1.66734 0.331654 1
      vertex -0.944469 1.4135 1
      vertex -0.650562 1.57059 1
    endloop
  endfacet
  facet normal 0 0 -1
    outer loop
      vertex -1.66734 0.331654 1
      vertex -0.650562 1.57059 1
      vertex -0.331654 1.66734 1
    endloop
  endfacet
  facet normal 0 0 -1
    outer loop
      vertex -1.66734 0.331654 1
      vertex -0.331654 1.66734 1
      vertex 0 1.7 1
    endloop
  endfacet
  facet normal 0 0 -1
    outer loop
      vertex -1.66734 0.331654 1
      vertex 0 1.7 1
      vertex 0.331654 1.66734 1
    endloop
  endfacet
  facet normal 0 0 -1
    outer loop
      vertex -1.66734 0.331654 1
      vertex 0.331654 1.66734 1
      vertex 0.650562 1.57059 1
    endloop
  endfacet
  facet normal 0 0 -1
    outer loop
      vertex -1.66734 0.331654 1
      vertex 0.650562 1.57059 1
      vertex 0.944469 1.4135 1
    endloop
  endfacet
  facet normal 0 0 -1
    outer loop
      vertex -1.66734 0.331654 1
      vertex 0.944469 1.4135 1
      vertex 1.20208 1.20208 1
    endloop
  endfacet
  facet normal 0 0 -1
    outer loop
      vertex -1.66734 0.331654 1
      vertex 1.20208 1.20208 1
      vertex 1.4135 0.944469 1
    endloop
  endfacet
  facet normal 0 0 -1
    outer loop
      vertex -1.66734 0.331654 1
      vertex 1.4135 0.944469 1
      vertex 1.57059 0.650562 1
    endloop
  endfacet
  facet normal 0 0 -1
    outer loop
      vertex -1.66734 0.331654 1
      vertex 1.57059 0.650562 1
      vertex 1.66734 0.331654 1
    endloop
  endfacet
  facet normal 0 0 -1
    outer loop
      vertex -1.66734 0.331654 1
      vertex 1.66734 0.331654 1
      vertex 1.7 0 1
    endloop
  endfacet
  facet normal 0 0 -1
    outer loop
      vertex -1.66734 0.331654 1
      vertex 1.7 0 1
      vertex 1.66734 -0.331654 1
    endloop
  endfacet
  facet normal 0 0 -1
    outer loop
      vertex -1.66734 0.331654 1
      vertex 1.66734 -0.331654 1
      vertex 1.57059 -0.650562 1
    endloop
  endfacet
  facet normal 0 0 -1
    outer loop
      vertex -1.66734 0.331654 1
      vertex 1.57059 -0.650562 1
      vertex 1.4135 -0.944469 1
    endloop
  endfacet
  facet normal 0 0 -1
    outer loop
      vertex -1.66734 0.331654 1
      vertex 1.4135 -0.944469 1
      vertex 1.20208 -1.20208 1
    endloop
  endfacet
  facet normal 0 0 -1
    outer loop
      vertex -1.66734 0.331654 1
      vertex 1.20208 -1.20208 1
      vertex 0.944469 -1.4135 1
    endloop
  endfacet
  facet normal 0 0 -1
    outer loop
      vertex -1.66734 0.331654 1
      vertex 0.944469 -1.4135 1
      vertex 0.650562 -1.57059 1
    endloop
  endfacet
  facet normal 0 0 -1
    outer loop
      vertex -1.66734 0.331654 1
      vertex 0.650562 -1.57059 1
      vertex 0.331654 -1.66734 1
    endloop
  endfacet
  facet normal 0 0 -1
    outer loop
      vertex -1.66734 0.331654 1
      vertex 0.331654 -1.66734 1
      vertex 0 -1.7 1
    endloop
  endfacet
  facet normal 0 0 -1
    outer loop
      vertex -1.66734 0.331654 1
      vertex 0 -1.7 1
      vertex -0.331654 -1.66734 1
    endloop
  endfacet
  facet normal 0 0 -1
    outer loop
      vertex -1.66734 0.331654 1
      vertex -0.331654 -1.66734 1
      vertex -0.650562 -1.57059 1
    endloop
  endfacet
  facet normal 0 0 -1
    outer loop
      vertex -1.66734 0.331654 1
      vertex -0.650562 -1.57059 1
      vertex -0.944469 -1.4135 1
    endloop
  endfacet
  facet normal 0 0 -1
    outer loop
      vertex -1.66734 0.331654 1
      vertex -0.944469 -1.4135 1
      vertex -1.20208 -1.20208 1
    endloop
  endfacet
  facet normal 0 0 -1
    outer loop
      vertex -1.66734 0.331654 1
      vertex -1.20208 -1.20208 1
      vertex -1.4135 -0.944469 1
    endloop
  endfacet
  facet normal 0 0 -1
    outer loop
      vertex -1.66734 0.331654 1
      vertex -1.4135 -0.944469 1
      vertex -1.57059 -0.650562 1
    endloop
  endfacet
  facet normal 0 0 -1
    outer loop
      vertex -1.66734 0.331654 1
      vertex -1.57059 -0.650562 1
      vertex -1.66734 -0.331654 1
    endloop
  endfacet
  facet normal 0 0 -1
    outer loop
      vertex -1.66734 0.331654 1
      vertex -1.66734 -0.331654 1
      vertex -1.7 0 1
    endloop
  endfacet
  facet normal 0 0 1
    outer loop
      vertex -2.45196 0.487726 5
      vertex -2.5 0 5
      vertex -2.45196 -0.487726 5
    endloop
  endfacet
  facet normal 0 0 1
    outer loop
      vertex -2.07867 -1.38893 5
      vertex -2.45196 0.487726 5
      vertex -2.3097 -0.956709 5
    endloop
  endfacet
  facet normal 0 0 1
    outer loop
      vertex -2.3097 -0.956709 5
      vertex -2.45196 0.487726 5
      vertex -2.45196 -0.487726 5
    endloop
  endfacet
  facet normal 0 0 1
    outer loop
      vertex -1.76777 -1.76777 5
      vertex -2.45196 0.487726 5
      vertex -2.07867 -1.38893 5
    endloop
  endfacet
  facet normal 0 0 1
    outer loop
      vertex -1.38893 -2.07867 5
      vertex -2.45196 0.487726 5
      vertex -1.76777 -1.76777 5
    endloop
  endfacet
  facet normal 0 0 1
    outer loop
      vertex -0.956709 -2.3097 5
      vertex -2.45196 0.487726 5
      vertex -1.38893 -2.07867 5
    endloop
  endfacet
  facet normal 0 0 1
    outer loop
      vertex -0.487726 -2.45196 5
      vertex -2.45196 0.487726 5
      vertex -0.956709 -2.3097 5
    endloop
  endfacet
  facet normal 0 0 1
    outer loop
      vertex 0 -2.5 5
      vertex -2.45196 0.487726 5
      vertex -0.487726 -2.45196 5
    endloop
  endfacet
  facet normal 0 0 1
    outer loop
      vertex 0.487726 -2.45196 5
      vertex -2.45196 0.487726 5
      vertex 0 -2.5 5
    endloop
  endfacet
  facet normal 0 0 1
    outer loop
      vertex 0.956709 -2.3097 5
      vertex -2.45196 0.487726 5
      vertex 0.487726 -2.45196 5
    endloop
  endfacet
  facet normal 0 0 1
    outer loop
      vertex 1.38893 -2.07867 5
      vertex -2.45196 0.487726 5
      vertex 0.956709 -2.3097 5
    endloop
  endfacet
  facet normal 0 0 1
    outer loop
      vertex 1.76777 -1.76777 5
      vertex -2.45196 0.487726 5
      vertex 1.38893 -2.07867 5
    endloop
  endfacet
  facet normal 0 0 1
    outer loop
      vertex 2.07867 -1.38893 5
      vertex -2.45196 0.487726 5
      vertex 1.76777 -1.76777 5
    endloop
  endfacet
  facet normal 0 0 1
    outer loop
      vertex 2.3097 -0.956709 5
      vertex -2.45196 0.487726 5
      vertex 2.07867 -1.38893 5
    endloop
  endfacet
  facet normal 0 0 1
    outer loop
      vertex 2.45196 -0.487726 5
      vertex -2.45196 0.487726 5
      vertex 2.3097 -0.956709 5
    endloop
  endfacet
  facet normal 0 0 1
    outer loop
      vertex 2.5 0 5
      vertex -2.45196 0.487726 5
      vertex 2.45196 -0.487726 5
    endloop
  endfacet
  facet normal 0 0 1
    outer loop
      vertex 2.45196 0.487726 5
      vertex -2.45196 0.487726 5
      vertex 2.5 0 5
    endloop
  endfacet
  facet normal 0 0 1
    outer loop
      vertex 2.3097 0.956709 5
      vertex -2.45196 0.487726 5
      vertex 2.45196 0.487726 5
    endloop
  endfacet
  facet normal 0 0 1
    outer loop
      vertex 2.07867 1.38893 5
      vertex -2.45196 0.487726 5
      vertex 2.3097 0.956709 5
    endloop
  endfacet
  facet normal 0 0 1
    outer loop
      vertex 1.76777 1.76777 5
      vertex -2.45196 0.487726 5
      vertex 2.07867 1.38893 5
    endloop
  endfacet
  facet normal 0 0 1
    outer loop
      vertex 1.38893 2.07867 5
      vertex -2.45196 0.487726 5
      vertex 1.76777 1.76777 5
    endloop
  endfacet
  facet normal 0 0 1
    outer loop
      vertex 0.956709 2.3097 5
      vertex -2.45196 0.487726 5
      vertex 1.38893 2.07867 5
    endloop
  endfacet
  facet normal 0 0 1
    outer loop
      vertex 0.487726 2.45196 5
      vertex -2.45196 0.487726 5
      vertex 0.956709 2.3097 5
    endloop
  endfacet
  facet normal 0 0 1
    outer loop
      vertex 0 2.5 5
      vertex -2.45196 0.487726 5
      vertex 0.487726 2.45196 5
    endloop
  endfacet
  facet normal 0 0 1
    outer loop
      vertex -0.487726 2.45196 5
      vertex -2.45196 0.487726 5
      vertex 0 2.5 5
    endloop
  endfacet
  facet normal 0 0 1
    outer loop
      vertex -0.956709 2.3097 5
      vertex -2.45196 0.487726 5
      vertex -0.487726 2.45196 5
    endloop
  endfacet
  facet normal 0 0 1
    outer loop
      vertex -1.38893 2.07867 5
      vertex -2.45196 0.487726 5
      vertex -0.956709 2.3097 5
    endloop
  endfacet
  facet normal 0 0 1
    outer loop
      vertex -1.76777 1.76777 5
      vertex -2.45196 0.487726 5
      vertex -1.38893 2.07867 5
    endloop
  endfacet
  facet normal 0 0 1
    outer loop
      vertex -2.07867 1.38893 5
      vertex -2.45196 0.487726 5
      vertex -1.76777 1.76777 5
    endloop
  endfacet
  facet normal 0 0 1
    outer loop
      vertex -2.3097 0.956709 5
      vertex -2.45196 0.487726 5
      vertex -2.07867 1.38893 5
    endloop
  endfacet
endsolid OpenSCAD_Model
